<?xml version="1.0" encoding="UTF-8" standalone="no"?>
<svg
   xmlns:dc="http://purl.org/dc/elements/1.1/"
   xmlns:cc="http://creativecommons.org/ns#"
   xmlns:rdf="http://www.w3.org/1999/02/22-rdf-syntax-ns#"
   xmlns:svg="http://www.w3.org/2000/svg"
   xmlns="http://www.w3.org/2000/svg"
   viewBox="0 0 330.56 302.72"
   height="302.72"
   width="330.56"
   xml:space="preserve"
   id="svg2"
   version="1.1"><metadata
     id="metadata8"><rdf:RDF><cc:Work
         rdf:about=""><dc:format>image/svg+xml</dc:format><dc:type
           rdf:resource="http://purl.org/dc/dcmitype/StillImage" /></cc:Work></rdf:RDF></metadata><defs
     id="defs6"><clipPath
       id="clipPath18"
       clipPathUnits="userSpaceOnUse"><path
         style="clip-rule:evenodd"
         id="path16"
         d="M 0,0 H 1033.3333 V 943.99609 H 0 Z" /></clipPath><clipPath
       id="clipPath30"
       clipPathUnits="userSpaceOnUse"><path
         style="clip-rule:evenodd"
         id="path28"
         d="M 0,0 H 1033.3333 V 938.04028 H 0 Z" /></clipPath><clipPath
       id="clipPath120"
       clipPathUnits="userSpaceOnUse"><path
         style="clip-rule:evenodd"
         id="path118"
         d="m 610.4707,801.05664 h 187.60803 v 62.53601 H 610.4707 Z" /></clipPath><clipPath
       id="clipPath158"
       clipPathUnits="userSpaceOnUse"><path
         style="clip-rule:evenodd"
         id="path156"
         d="M 0,0 H 1033.3333 V 938.04028 H 0 Z" /></clipPath><clipPath
       id="clipPath176"
       clipPathUnits="userSpaceOnUse"><path
         style="clip-rule:evenodd"
         id="path174"
         d="M 619.40442,491.35446 H 804.03455 V 553.8905 H 619.40442 Z" /></clipPath><clipPath
       id="clipPath214"
       clipPathUnits="userSpaceOnUse"><path
         style="clip-rule:evenodd"
         id="path212"
         d="M 0,0 H 1033.3333 V 938.04028 H 0 Z" /></clipPath><clipPath
       id="clipPath232"
       clipPathUnits="userSpaceOnUse"><path
         style="clip-rule:evenodd"
         id="path230"
         d="m 604.51489,175.69644 h 199.51965 v 62.53603 H 604.51489 Z" /></clipPath><clipPath
       id="clipPath270"
       clipPathUnits="userSpaceOnUse"><path
         style="clip-rule:evenodd"
         id="path268"
         d="M 0,0 H 1033.3333 V 938.04028 H 0 Z" /></clipPath></defs><g
     transform="matrix(0.31999998,0,0,0.31999998,0,1.0901333e-5)"
     id="g10"><g
       id="g12"><g
         clip-path="url(#clipPath18)"
         id="g14"><g
           transform="scale(2.9779058)"
           id="g20"><path
             id="path22"
             style="fill:#ffffff;fill-opacity:1;fill-rule:nonzero;stroke:none"
             d="M 0,0 H 347 V 317 H 0 Z" /></g></g></g><g
       id="g24"><g
         clip-path="url(#clipPath30)"
         id="g26"><g
           transform="matrix(2.9779058,0,0,2.9779058,1.4889529,1.4889529)"
           id="g32"><path
             id="path34"
             style="fill:#ffffff;fill-opacity:1;fill-rule:nonzero;stroke:none"
             d="M 52.720001,213.50999 C 55.07,214.10001 58.779999,216.64 60.490002,218.74001 62.209999,220.84 62.98,223.61 63,226.13 c 0.02,2.51999 -0.73,5.84 -2.400002,7.71 -1.659999,1.86 -4.949996,3.32 -7.599998,3.5 -2.639999,0.16999 -6.07,-1.25 -8.25,-2.46 -2.18,-1.20001 -4.139999,-2.52 -4.830002,-4.79 -0.699997,-2.26999 -0.349998,-6.09 0.660004,-8.81 1.019996,-2.72 2.949997,-6.4 5.41,-7.5 2.469997,-1.10001 7.269996,0.39999 9.369999,0.91 2.11,0.51 3.220001,2.13001 3.259998,2.16001 m -4.039997,-2.36 c 2.449997,0.79998 5.209999,3.22999 6.369999,5.38999 1.16,2.15 0.989998,4.87 0.569999,7.56 -0.43,2.69 -1.240001,6.64 -3.119998,8.59 C 56.52,237.97 52.82,239.14 50.25,239.10001 c -2.560001,-0.04 -5.330002,-1.61 -7.209999,-3.31002 -1.889999,-1.69999 -3.639999,-4.03999 -4.07,-6.86999 -0.43,-2.83 0.360001,-7.64 1.489998,-10.08 1.130001,-2.45 2.900002,-3.59 5.290001,-4.62 2.389999,-1.03 7.560001,-1.33 9.040001,-1.57001 1.489998,-0.23999 -0.03,-0.27999 -0.120003,0.13001" /><path
             id="path36"
             style="fill:none;stroke:#000000;stroke-width:1;stroke-linecap:butt;stroke-linejoin:miter;stroke-miterlimit:10;stroke-dasharray:none;stroke-opacity:1"
             d="m 49.580002,213.60001 c 2.41,-0.21001 7.129997,1.41999 9.199997,3.08999 2.069999,1.68 2.819999,4.73999 3.220001,6.98 0.389999,2.25 0.08,4.21 -0.849998,6.50999 -0.930001,2.29001 -2.590001,5.97 -4.740002,7.26001 -2.150002,1.28 -5.490002,1.33 -8.189999,0.45 C 45.52,237 41.639999,234.31 40.209999,232.13 38.790001,229.95 39.310001,227.28999 39.66,224.78999 c 0.34,-2.5 0.709999,-5.68998 2.619999,-7.65999 1.900001,-1.96 7.060001,-3.4 8.800003,-4.12001 1.729999,-0.72 1.57,-0.54998 1.589996,-0.19999 m 0,1.43001 c 2.670002,0.1 6.380001,-0.03 8.260002,2.08999 1.880001,2.12 3.110001,7.70999 3.009999,10.62 -0.09,2.90001 -1.739998,4.94 -3.579998,6.83 -1.840001,1.89 -4.790001,4.00999 -7.470002,4.52 -2.68,0.5 -6.2,-0.24 -8.599998,-1.49 -2.400002,-1.23999 -4.82,-3.36 -5.82,-5.98 C 37.48,228.21001 37.369999,223.64 38.32,221.08 c 0.939998,-2.56 3.319999,-4.21 5.830002,-5.61 2.509998,-1.39999 7.579998,-2.74 9.229999,-2.8 1.649998,-0.07 0.899998,2.22999 0.669998,2.40001" /><path
             id="path38"
             style="fill:#ffffff;fill-opacity:1;fill-rule:nonzero;stroke:none"
             d="m -0.50999999,224.85001 32.67999799,-0.08 2.530003,8.80001 5.209999,2.53 5.060001,6.44999 L 52.91,241.51 l 6.59,-0.93998 1.889999,-1.10001 6.900002,-5.5 1.519997,-9.75999 31.220002,2.45999 1.74,85.15001 -100.3899999,0.5 L 0.60000002,226.16" /><path
             id="path40"
             style="fill:none;stroke:#000000;stroke-width:1;stroke-linecap:butt;stroke-linejoin:miter;stroke-miterlimit:10;stroke-dasharray:none;stroke-opacity:1"
             d="m 1,225.5 c 8.0900002,-1.06 14.49,-0.72 32.5,0 m -32.5,0 c 12.2,1.25999 23.27,0.53999 32.5,0 m 0,0 C 33.189999,236.08 40.380001,243.86 51,243 M 33.5,225.5 c -1.889999,11.34 5.740002,17.12 17.5,17.5 m 0,0 c 8.59,0.8 17.93,-8.8 17.5,-17.5 M 51,243 c 11.25,2.22 16.220001,-9.17 17.5,-17.5 m 0,0 c 10.300003,-1.12 17.419998,-0.13 32.5,0 m -32.5,0 c 9.580002,0.75999 19.050003,0.47 32.5,0 m 0,0 c 1.02,24.96001 1.58,47.26999 0,87.5 m 0,-87.5 c -0.38,31.22 0.2,61.59 0,87.5 m 0,0 C 76.510002,312.41 53.509998,312.23999 1,313 m 100,0 c -36.550003,1.10999 -73,1.04999 -100,0 m 0,0 C 1.77,290.26001 -0.56,266.32001 1,225.5 M 1,313 C 0.97,285.26999 0.87,259.29999 1,225.5" /></g><g
           transform="scale(2.9779058)"
           id="g42"><text
             id="text46"
             style="font-variant:normal;font-weight:bold;font-size:17px;font-family:Helvetica;-inkscape-font-specification:Helvetica-Bold;writing-mode:lr-tb;fill:#000000;fill-opacity:1;fill-rule:nonzero;stroke:none"
             transform="translate(12.296875,268)"><tspan
               id="tspan44"
               y="0"
               x="0 11.338867 26.45459 35.90918 42.524902 52.90918 57.632324 68.016602">Emerging</tspan></text>
<text
             id="text50"
             style="font-variant:normal;font-weight:bold;font-size:17px;font-family:Helvetica;-inkscape-font-specification:Helvetica-Bold;writing-mode:lr-tb;fill:#000000;fill-opacity:1;fill-rule:nonzero;stroke:none"
             transform="translate(7.09375,288)"><tspan
               id="tspan48"
               y="0"
               x="0 12.276855 21.731445 32.115723 41.570312 54.793457 64.248047 74.632324 79.355469">Renewable</tspan></text>
</g><g
           transform="matrix(2.9779058,0,0,2.9779058,1.4889529,1.4889529)"
           id="g52"><path
             id="path54"
             style="fill:#ffffff;fill-opacity:1;fill-rule:nonzero;stroke:none"
             d="m 49.25,109.69 c 2.509998,-0.91 6.790001,-1.31 9.130001,-0.16 2.34,1.15 3.93,4.5 4.899998,7.05 0.970001,2.55 1.349998,5.84 0.910003,8.25 -0.45,2.42 -1.520004,4.72 -3.600002,6.25 -2.080002,1.53 -6.25,3.09999 -8.900001,2.94 -2.64,-0.16 -5.25,-2.15001 -6.959999,-3.91 -1.71,-1.75999 -3.110001,-4.2 -3.3,-6.64 -0.189998,-2.45 0.790001,-5.77 2.16,-8.03 1.360001,-2.25 4.560002,-4.43 6.029999,-5.5 1.460003,-1.06 2.57,-1.13 2.760002,-0.88 m 3.41,1.16 c 2.689999,0.65 7.16,3.58 8.809997,5.71 1.660004,2.14 1.75,4.64 1.120003,7.1 -0.630005,2.47 -2.66,5.86 -4.900001,7.7 -2.23,1.84001 -6.020001,3.15 -8.509999,3.36 -2.490001,0.19999 -4.68,-0.37999 -6.43,-2.12 -1.75,-1.75 -3.530003,-5.43 -4.060001,-8.36 -0.529999,-2.93 -0.209999,-6.96 0.86,-9.23 1.07,-2.26 3.310002,-3.48 5.55,-4.35 2.25,-0.87 6.689998,-1.01 7.920002,-0.85 1.229999,0.16 -0.650002,1.7 -0.520001,1.79" /><path
             id="path56"
             style="fill:none;stroke:#000000;stroke-width:1;stroke-linecap:butt;stroke-linejoin:miter;stroke-miterlimit:10;stroke-dasharray:none;stroke-opacity:1"
             d="m 49.240002,110.19 c 2.219997,-0.92 5.129997,-0.86 7.449997,0.01 2.319999,0.87 4.970001,2.98 6.460003,5.21 1.489997,2.23 2.959999,5.5 2.489997,8.16 -0.459999,2.66 -3.18,6.13 -5.27,7.81 -2.09,1.67 -4.789997,2.29999 -7.270001,2.25 -2.489997,-0.05 -5.699996,-0.65 -7.639999,-2.57 -1.950001,-1.91001 -3.610001,-6.18 -4.049999,-8.9 -0.439999,-2.72 0.08,-5.3 1.41,-7.42 1.319999,-2.12 5.260002,-4.6 6.510002,-5.3 1.259998,-0.7 0.91,0.73 1.019996,1.08 M 51.82,110.57 c 2.36,-0.4 6.630001,-0.64 8.77,0.65 2.14,1.28 3.539997,4.45 4.070004,7.05 0.539993,2.61 0.639999,6.14 -0.840004,8.58 -1.48,2.45 -5.439999,5.15 -8.05,6.1 -2.61,0.96 -5.170002,0.51001 -7.59,-0.34 -2.43,-0.85001 -5.799999,-2.32001 -6.959999,-4.74 -1.170002,-2.41 -0.850002,-7.21 -0.05,-9.74 0.800003,-2.53 2.610001,-3.8 4.830002,-5.44 2.220001,-1.65 7.43,-4.05 8.5,-4.43 1.080002,-0.37 -1.869999,1.69 -2.040001,2.17" /><path
             id="path58"
             style="fill:#ffffff;fill-opacity:1;fill-rule:nonzero;stroke:none"
             d="m 1.49,121.19 35.08,-1.56 -0.91,7.62 5.41,6.28999 6.170002,2.22 6.059997,2.17 5.75,1.5 5.039997,-5.42999 5.080002,-4.39999 0.82,-6.90001 33.880002,-0.53 -2.75,86.72999 -98.2799998,-1.04998 0.01,-86.59001" /><path
             id="path60"
             style="fill:none;stroke:#000000;stroke-width:1;stroke-linecap:butt;stroke-linejoin:miter;stroke-miterlimit:10;stroke-dasharray:none;stroke-opacity:1"
             d="m 3,121.5 c 12.73,0.01 26.35,-2.15 32.5,0 m -32.5,0 c 12.78,-0.67 26.200001,-0.5 32.5,0 m 0,0 C 34,130.78999 42.689999,138.39 53,139 M 35.5,121.5 c -1.919998,10.25 7.799999,16 17.5,17.5 m 0,0 c 10.400002,1.11999 19.190002,-8.96001 17.5,-17.5 M 53,139 c 8.490002,1.66 17.970001,-6.60001 17.5,-17.5 m 0,0 c 9.010002,-1.17 19.769997,0.1 32.5,0 m -32.5,0 c 13.900002,-0.51 26.68,0.19 32.5,0 m 0,0 c -1.47,23.82001 -0.22,50.62 0,87.5 m 0,-87.5 c 0.91,34.42999 0,67.42 0,87.5 m 0,0 c -37.480003,-1.35001 -76.5,1.69 -100,0 m 100,0 c -37.470001,0 -75.35,0.07 -100,0 m 0,0 C 1.88,182 0.78999996,153.85001 3,121.5 M 3,209 C 2.6600001,183.50999 3.75,155.85001 3,121.5" /></g><g
           transform="scale(2.9779058)"
           id="g62"><text
             id="text66"
             style="font-variant:normal;font-weight:bold;font-size:17px;font-family:Helvetica;-inkscape-font-specification:Helvetica-Bold;writing-mode:lr-tb;fill:#000000;fill-opacity:1;fill-rule:nonzero;stroke:none"
             transform="translate(27.984375,164)"><tspan
               id="tspan64"
               y="0"
               x="0 11.338867 17 26.45459 36.838867 41.562012">Stable</tspan></text>
<text
             id="text70"
             style="font-variant:normal;font-weight:bold;font-size:17px;font-family:Helvetica;-inkscape-font-specification:Helvetica-Bold;writing-mode:lr-tb;fill:#000000;fill-opacity:1;fill-rule:nonzero;stroke:none"
             transform="translate(9.09375,184)"><tspan
               id="tspan68"
               y="0"
               x="0 12.276855 21.731445 32.115723 41.570312 54.793457 64.248047 74.632324 79.355469">Renewable</tspan></text>
</g><g
           transform="matrix(2.9779058,0,0,2.9779058,1.4889529,1.4889529)"
           id="g72"><path
             id="path74"
             style="fill:#ffffff;fill-opacity:1;fill-rule:nonzero;stroke:none"
             d="M 47.470001,4.3699999 C 49.849998,3.49 53.34,4.0500002 55.669998,4.9300003 58,5.8099999 60.349998,7.4400001 61.43,9.6400003 62.509998,11.84 62.720001,15.65 62.169998,18.1 c -0.549999,2.459999 -2.019996,4.67 -4.029999,6.289999 -2.009998,1.620001 -5.5,3.42 -8.040001,3.430001 C 47.57,27.83 44.720001,26.32 42.939999,24.450001 41.16,22.57 39.720001,19.32 39.400002,16.57 39.080002,13.83 39.52,10.26 41.009998,7.98 42.5,5.6999998 46.650002,3.6800001 48.330002,2.8899999 c 1.679996,-0.8 2.559997,-0.07 2.769996,0.3100001 m 3.41,0.6699999 c 2.34,0.06 3.740002,0.5799999 5.34,2.71 1.600003,2.1400004 4.380005,7.1500001 4.25,10.1100001 -0.139999,2.96 -3.459999,5.939999 -5.069999,7.680001 -1.599999,1.74 -2.149998,2.679998 -4.559998,2.75 -2.41,0.07 -7.620003,-0.860001 -9.91,-2.33 C 42.259998,23.33 41.5,20.51 40.689999,18.32 c -0.82,-2.190001 -1.739998,-4.48 -1.020001,-6.66 0.730004,-2.1800005 3.320004,-4.87 5.370003,-6.4200002 2.059997,-1.5599997 5.82,-2.7999997 6.950001,-2.8899999 C 53.119999,2.25 51.59,4.2199998 51.82,4.6700001" /><path
             id="path76"
             style="fill:none;stroke:#000000;stroke-width:1;stroke-linecap:butt;stroke-linejoin:miter;stroke-miterlimit:10;stroke-dasharray:none;stroke-opacity:1"
             d="m 50.639999,2.75 c 2.520001,0.08 6.350003,1.96 8.41,3.8200002 2.060002,1.8699994 3.490002,5.0199998 3.959999,7.3700008 0.460003,2.359998 0.150002,4.619998 -1.179996,6.75 -1.330002,2.119998 -4.410004,5 -6.810002,5.989999 -2.389999,1 -5.150001,0.869999 -7.560001,-0.02 -2.41,-0.9 -5.66,-3.289999 -6.899998,-5.350001 C 39.330002,19.25 39.630001,16.68 40.049999,14.31 c 0.41,-2.369999 0.580002,-5.5800005 2.990002,-7.2300001 2.41,-1.6599998 9.139999,-2.46 11.469997,-2.6999998 2.320004,-0.25 2.680001,1.0299997 2.480004,1.2399998 m -9.940003,-1.73 C 49.25,2.99 53.599998,2.76 55.810001,3.75 58.009998,4.75 59.07,7.54 60.279999,9.8599997 61.5,12.18 63.330002,15.26 63.099998,17.67 c -0.229999,2.42 -1.949996,5.139999 -4.219997,6.68 -2.27,1.539999 -7,2.520001 -9.400001,2.55 -2.39,0.02 -3.149998,-0.99 -4.970002,-2.4 C 42.689999,23.09 39.150002,20.99 38.57,18.450001 37.990002,15.91 39.450001,11.78 41.049999,9.2700005 42.650002,6.7600002 47.41,4.3899999 48.189999,3.3900001 48.970001,2.4000001 45.599998,3.25 45.73,3.3" /><path
             id="path78"
             style="fill:#ffffff;fill-opacity:1;fill-rule:nonzero;stroke:none"
             d="m -0.5,14.67 35.990002,1.82 -0.620003,5.729999 1.790001,4.99 6.509998,5.09 L 51.93,33.330002 59,32.43 61.549999,27.639999 66.5,23.4 67.790001,15.43 100.33,17.299999 102.82,102.58 2.8699999,103.66 2.3600001,15.43" /><path
             id="path80"
             style="fill:none;stroke:#000000;stroke-width:1;stroke-linecap:butt;stroke-linejoin:miter;stroke-miterlimit:10;stroke-dasharray:none;stroke-opacity:1"
             d="m 1,15.5 c 9.8,0.9 21.41,-0.28 32.5,0 M 1,15.5 c 8.8500004,0.270001 19.540001,-0.03 32.5,0 m 0,0 C 33.900002,24.290001 39.580002,31.879999 51,33 M 33.5,15.5 c 2.139999,9.280001 7,19.07 17.5,17.5 m 0,0 C 61.150002,33.08 69.989998,24.440001 68.5,15.5 M 51,33 C 58.48,31.67 70.779999,22.99 68.5,15.5 m 0,0 c 6.160004,1.83 14.529999,1.389999 32.5,0 m -32.5,0 c 9.019997,-0.42 18.559998,0.07 32.5,0 m 0,0 c 0.26,18.18 0.55,35.48 0,87.5 m 0,-87.5 c -1.209999,27.09 -0.99,53.699997 0,87.5 m 0,0 c -35.160004,2.05 -70.58,-0.33 -100,0 m 100,0 c -23.809998,1.46 -45.119999,0.5 -100,0 m 0,0 C -0.07000001,79.239998 2.22,55.619999 1,15.5 M 1,103 C 0.81999999,75.459999 1.96,46.869999 1,15.5" /></g><g
           transform="scale(2.9779058)"
           id="g82"><text
             id="text86"
             style="font-variant:normal;font-weight:bold;font-size:17px;font-family:Helvetica;-inkscape-font-specification:Helvetica-Bold;writing-mode:lr-tb;fill:#000000;fill-opacity:1;fill-rule:nonzero;stroke:none"
             transform="translate(23.640625,58)"><tspan
               id="tspan84"
               y="0"
               x="0 14.161133 23.615723 29.276855 39.661133 46.276855">Mature</tspan></text>
<text
             id="text90"
             style="font-variant:normal;font-weight:bold;font-size:17px;font-family:Helvetica;-inkscape-font-specification:Helvetica-Bold;writing-mode:lr-tb;fill:#000000;fill-opacity:1;fill-rule:nonzero;stroke:none"
             transform="translate(32.140625,78)"><tspan
               id="tspan88"
               y="0"
               x="0 12.276855 17 23.615723 29.276855">Dirty</tspan></text>
<text
             id="text94"
             style="font-variant:normal;font-weight:bold;font-size:12px;font-family:Helvetica;-inkscape-font-specification:Helvetica-Bold;writing-mode:lr-tb;fill:#000000;fill-opacity:1;fill-rule:nonzero;stroke:none"
             transform="translate(42.65625,232)"><tspan
               id="tspan92"
               y="0"
               x="0 8.0039062">ER</tspan></text>
<text
             id="text98"
             style="font-variant:normal;font-weight:bold;font-size:12px;font-family:Helvetica;-inkscape-font-specification:Helvetica-Bold;writing-mode:lr-tb;fill:#000000;fill-opacity:1;fill-rule:nonzero;stroke:none"
             transform="translate(44.65625,126)"><tspan
               id="tspan96"
               y="0"
               x="0 8.0039062">SR</tspan></text>
<text
             id="text102"
             style="font-variant:normal;font-weight:bold;font-size:12px;font-family:Helvetica;-inkscape-font-specification:Helvetica-Bold;writing-mode:lr-tb;fill:#000000;fill-opacity:1;fill-rule:nonzero;stroke:none"
             transform="translate(41.65625,20)"><tspan
               id="tspan100"
               y="0"
               x="0 9.9960938">MD</tspan></text>
</g><g
           transform="matrix(2.9779058,0,0,2.9779058,1.4889529,1.4889529)"
           id="g104"><path
             id="path106"
             style="fill:#ffffff;fill-opacity:1;fill-rule:nonzero;stroke:none"
             d="m 238.46001,212.48 c 2.68998,0.33 6.75,3.02 8.42999,5.3 1.67,2.28 1.84,5.56 1.61,8.38 -0.22,2.82 -1.13,6.46 -2.96001,8.53 -1.81999,2.06999 -5.25999,3.51 -8,3.9 -2.72999,0.40001 -6.12999,0.06 -8.39,-1.55001 C 226.89,235.44 224.97,231.69 223.98,228.97 c -0.98,-2.72999 -1.75,-6.02 -0.73999,-8.29001 1.01998,-2.26999 4.15998,-4.10998 6.86,-5.31999 2.69999,-1.21001 7.45999,-1.88 9.34999,-1.91 1.90001,-0.03 2.15001,1.66 2.01001,1.71 m -1.95002,-1.69999 c 2.28,0.65999 5.85001,1.87999 7.61001,4.22999 1.77,2.34999 3.37001,7.13001 2.99,9.87 -0.39,2.72999 -2.93001,4.6 -5.3,6.53 -2.36,1.93 -6.06999,5.08999 -8.87,5.05999 -2.8,-0.03 -5.86999,-3.50999 -7.92,-5.25 -2.05999,-1.75 -4.05999,-2.93998 -4.41999,-5.20999 -0.35001,-2.27 0.93998,-5.88 2.27999,-8.42 1.33001,-2.54 3.54999,-5.79 5.76,-6.83 2.2,-1.04001 6.16,0.70999 7.47,0.56999 1.3,-0.13999 0.25,-1.38999 0.36,-1.38999" /><path
             id="path108"
             style="fill:none;stroke:#000000;stroke-width:1;stroke-linecap:butt;stroke-linejoin:miter;stroke-miterlimit:10;stroke-dasharray:none;stroke-opacity:1"
             d="m 238.46001,212.72 c 2.42999,0.39 5.17999,2.69 6.93998,4.66 1.76001,1.97001 3.59002,4.54999 3.61,7.17 0.03,2.62999 -1.56999,6.51 -3.47,8.58 -1.89999,2.06 -5.36,3.24 -7.91999,3.81 -2.54999,0.58 -5.2,0.92 -7.37999,-0.38 -2.18001,-1.30001 -4.75,-5.02001 -5.70002,-7.41001 -0.94999,-2.39 -0.79998,-4.58999 0,-6.93998 C 225.34,219.87 226.8,216.53 229.34,215.08 c 2.53,-1.44 8.16,-1.39 10.41,-1.53 2.25,-0.15001 2.91,0.30001 3.07001,0.67 m -10.75,-1.19 c 2.21998,-1.05 5.73999,-1.52001 8.42999,-0.31999 2.69,1.18998 6.45,5.01999 7.7,7.50999 1.24,2.5 0.29001,5 -0.23999,7.45999 -0.54001,2.46001 -0.74001,5.67002 -2.97,7.32001 -2.23002,1.64 -7.58001,2.37 -10.42,2.56 -2.83,0.18001 -4.51001,0.46 -6.58,-1.45 -2.07001,-1.89999 -5.31002,-6.86 -5.86001,-10 -0.55,-3.14999 0.62,-6.95 2.54999,-8.86 1.92002,-1.91 7.73001,-1.91 8.99001,-2.61 1.25999,-0.7 -1.2,-1.39 -1.45999,-1.58" /><path
             id="path110"
             style="fill:#ffffff;fill-opacity:1;fill-rule:nonzero;stroke:none"
             d="m 187.11,225.60001 30.49001,1.20999 2.91999,7.01001 1.48,4.86999 6.37,2.28 7.77,2.37 5.13,-2.55001 6.51999,-4.48999 2.60001,-2.99 3.34,-6.70999 30.66999,0.25 3.26001,85.98999 -100.97,-0.65 -0.88,-85.08999" /><path
             id="path112"
             style="fill:none;stroke:#000000;stroke-width:1;stroke-linecap:butt;stroke-linejoin:miter;stroke-miterlimit:10;stroke-dasharray:none;stroke-opacity:1"
             d="m 186,225.5 c 6.94,0.95 15.8,-0.49001 32.5,0 m -32.5,0 c 9.19,0.56 16.99001,-0.14 32.5,0 m 0,0 c 1.64999,8.99001 6.8,16.89 17.5,17.5 m -17.5,-17.5 c 1.13,11.86 6.12,16.06 17.5,17.5 m 0,0 c 8.94,-1.92999 19.42999,-6.35001 17.5,-17.5 M 236,243 c 9.53,-1.08 16.73,-9.73 17.5,-17.5 m 0,0 c 8.87,0.28 16.45999,-1.61 32.5,0 m -32.5,0 c 12.76001,0.04 25.73999,-0.23 32.5,0 m 0,0 c 0.23001,31.35999 -1.72,64.26999 0,87.5 m 0,-87.5 c 0.69,28.7 1.73999,55.51999 0,87.5 m 0,0 c -21.97,-0.14999 -41.06,0.98999 -100,0 m 100,0 c -19.66,-0.70001 -40.09,0.70001 -100,0 m 0,0 c 2,-26.25 2.03999,-55.13 0,-87.5 m 0,87.5 c 0.2,-25.37 0.61,-49.53 0,-87.5" /></g></g></g><g
       id="g114"><g
         clip-path="url(#clipPath120)"
         id="g116"><g
           transform="matrix(0.06067745,0,0,-0.06120183,610.4917,848.64105)"
           id="g122"><path
             id="path124"
             style="fill:#000000;fill-opacity:1;fill-rule:nonzero;stroke:none"
             d="m 55,507 c 0,55.33331 19,102 57,140 38,38 81.66666,57 131,57 h 14 c 56.66666,0 106,-21 148,-63 l 21,31 c 3.33334,4.66669 6.66666,9.66669 10,15 3.33334,5.33331 6.66666,9.66669 10,13 l 3,4 c 0.66666,0 2,0 4,0 2,0 4,0.33331 6,1 h 4 c 2,0 5,-2 9,-6 V 462 l -6,-6 h -18 c -7.33334,0 -11.66666,1 -13,3 -1.33334,2 -3,8.66666 -5,20 -11.33334,84 -45,139.66669 -101,167 -24.66666,10.66669 -49.66666,16 -75,16 -35.33334,0 -64,-12 -86,-36 -22,-24 -33,-52 -33,-84 0,-22.66669 5.66667,-43.33334 17,-62 11.33333,-18.66666 27.33333,-33.66666 48,-45 6.66667,-2.66666 35.33333,-10.33334 86,-23 50.66666,-12.66666 78.66666,-20.33334 84,-23 38,-14.66666 69,-39.66666 93,-75 24,-35.33334 36.33334,-76.33333 37,-123 C 500,137 482.66666,88.333336 448,45 413.33334,1.6666641 364.33334,-20.333334 301,-21 263.66666,-21 230.33333,-15.333334 201,-4 171.66667,7.333334 151.33333,17.666666 140,27 L 122,41 C 119.33334,37.666668 114.33334,31 107,21 99.666664,11 93,1.666667 87,-7 c -6,-8.666667 -9,-13.333334 -9,-14 -1.333336,-0.666666 -4.666664,-1 -10,-1 h -4 c -2,0 -5,2 -9,6 v 117 c 0,79.33334 0.333332,119.66667 1,121 1.333332,3.33333 8,5 20,5 h 13 c 4,-4 6,-8.33333 6,-13 0,-21.33333 3.333336,-42.33333 10,-63 6.66666,-20.66667 18,-41 34,-61 16,-20 38,-36 66,-48 28,-12 61.33334,-18 100,-18 31.33334,0 58.33334,12.666664 81,38 22.66666,25.333336 34,56.33333 34,93 0,28.66667 -7.33334,54.66667 -22,78 -14.66666,23.33334 -34,39.33334 -58,48 -37.33334,9.33334 -62,15.66666 -74,19 -3.33334,0.66666 -12.33333,2.66666 -27,6 -14.66667,3.33334 -25.66667,6 -33,8 -7.33333,2 -18,5.66666 -32,11 -14,5.33334 -25,11.33334 -33,18 -8,6.66666 -17.66666,14.66666 -29,24 -11.33334,9.33334 -20.333336,21 -27,35 -20,32.66666 -30,67.66666 -30,105 z" /><path
             id="path126"
             style="fill:none;stroke:#000000;stroke-width:1;stroke-linecap:butt;stroke-linejoin:miter;stroke-miterlimit:10;stroke-dasharray:none;stroke-opacity:0.01569998"
             d="m 55,507 c 0,55.33331 19,102 57,140 38,38 81.66666,57 131,57 h 14 c 56.66666,0 106,-21 148,-63 l 21,31 c 3.33334,4.66669 6.66666,9.66669 10,15 3.33334,5.33331 6.66666,9.66669 10,13 l 3,4 c 0.66666,0 2,0 4,0 2,0 4,0.33331 6,1 h 4 c 2,0 5,-2 9,-6 V 462 l -6,-6 h -18 c -7.33334,0 -11.66666,1 -13,3 -1.33334,2 -3,8.66666 -5,20 -11.33334,84 -45,139.66669 -101,167 -24.66666,10.66669 -49.66666,16 -75,16 -35.33334,0 -64,-12 -86,-36 -22,-24 -33,-52 -33,-84 0,-22.66669 5.66667,-43.33334 17,-62 11.33333,-18.66666 27.33333,-33.66666 48,-45 6.66667,-2.66666 35.33333,-10.33334 86,-23 50.66666,-12.66666 78.66666,-20.33334 84,-23 38,-14.66666 69,-39.66666 93,-75 24,-35.33334 36.33334,-76.33333 37,-123 C 500,137 482.66666,88.333336 448,45 413.33334,1.6666641 364.33334,-20.333334 301,-21 263.66666,-21 230.33333,-15.333334 201,-4 171.66667,7.333334 151.33333,17.666666 140,27 L 122,41 C 119.33334,37.666668 114.33334,31 107,21 99.666664,11 93,1.666667 87,-7 c -6,-8.666667 -9,-13.333334 -9,-14 -1.333336,-0.666666 -4.666664,-1 -10,-1 h -4 c -2,0 -5,2 -9,6 v 117 c 0,79.33334 0.333332,119.66667 1,121 1.333332,3.33333 8,5 20,5 h 13 c 4,-4 6,-8.33333 6,-13 0,-21.33333 3.333336,-42.33333 10,-63 6.66666,-20.66667 18,-41 34,-61 16,-20 38,-36 66,-48 28,-12 61.33334,-18 100,-18 31.33334,0 58.33334,12.666664 81,38 22.66666,25.333336 34,56.33333 34,93 0,28.66667 -7.33334,54.66667 -22,78 -14.66666,23.33334 -34,39.33334 -58,48 -37.33334,9.33334 -62,15.66666 -74,19 -3.33334,0.66666 -12.33333,2.66666 -27,6 -14.66667,3.33334 -25.66667,6 -33,8 -7.33333,2 -18,5.66666 -32,11 -14,5.33334 -25,11.33334 -33,18 -8,6.66666 -17.66666,14.66666 -29,24 -11.33334,9.33334 -20.333336,21 -27,35 -20,32.66666 -30,67.66666 -30,105 z" /></g><g
           transform="matrix(0.06067745,0,0,-0.06120183,644.22833,848.64105)"
           id="g128"><path
             id="path130"
             style="fill:#000000;fill-opacity:1;fill-rule:nonzero;stroke:none"
             d="m 130,622 c -4.66666,4.66669 -8.33334,7.66669 -11,9 -2.66666,1.33331 -8,2.33331 -16,3 -8,0.66669 -22.333328,1.66669 -43,3 H 27 v 46 h 187 c 15.33333,0 36,0 62,0 26,0 44.33334,0.33331 55,1 58.66666,0 105.33334,-4.33331 140,-13 34.66666,-8.66669 66.66669,-27 96,-55 38,-35.33331 57,-77.66669 57,-127 0,-45.33334 -17,-84.33334 -51,-117 -34,-32.66666 -74.66666,-54.33334 -122,-65 -14.66666,-3.33334 -55.66666,-5.33334 -123,-6 H 234 V 181 c 0,-79.33334 1,-120.333332 3,-123 5.33333,-7.333332 27.66666,-11.333332 67,-12 h 33 V 0 H 326 C 312,2 264,3 182,3 92,3 44,2 38,0 H 27 v 46 h 33 c 28,0.666668 45,1.666668 51,3 6,1.333332 12.33334,5.333332 19,12 z M 507,488 c 0,17.33334 -0.33334,30.66669 -1,40 -0.66666,9.33331 -2.66666,21.33331 -6,36 -3.33334,14.66669 -9,25.66669 -17,33 -8,7.33331 -19,15 -33,23 -14,8 -31.66666,13 -53,15 -8,1.33331 -38,2 -90,2 h -21 c -32.66667,0 -50,-3 -52,-9 -2,-2.66669 -3,-51 -3,-145 V 342 h 71 37 c 34,0 62,2.33334 84,7 22,4.66666 41.33334,15.66666 58,33 17.33334,19.33334 26,54.66666 26,106 z" /><path
             id="path132"
             style="fill:none;stroke:#000000;stroke-width:1;stroke-linecap:butt;stroke-linejoin:miter;stroke-miterlimit:10;stroke-dasharray:none;stroke-opacity:0.01569998"
             d="m 130,622 c -4.66666,4.66669 -8.33334,7.66669 -11,9 -2.66666,1.33331 -8,2.33331 -16,3 -8,0.66669 -22.333328,1.66669 -43,3 H 27 v 46 h 187 c 15.33333,0 36,0 62,0 26,0 44.33334,0.33331 55,1 58.66666,0 105.33334,-4.33331 140,-13 34.66666,-8.66669 66.66669,-27 96,-55 38,-35.33331 57,-77.66669 57,-127 0,-45.33334 -17,-84.33334 -51,-117 -34,-32.66666 -74.66666,-54.33334 -122,-65 -14.66666,-3.33334 -55.66666,-5.33334 -123,-6 H 234 V 181 c 0,-79.33334 1,-120.333332 3,-123 5.33333,-7.333332 27.66666,-11.333332 67,-12 h 33 V 0 H 326 C 312,2 264,3 182,3 92,3 44,2 38,0 H 27 v 46 h 33 c 28,0.666668 45,1.666668 51,3 6,1.333332 12.33334,5.333332 19,12 z M 507,488 c 0,17.33334 -0.33334,30.66669 -1,40 -0.66666,9.33331 -2.66666,21.33331 -6,36 -3.33334,14.66669 -9,25.66669 -17,33 -8,7.33331 -19,15 -33,23 -14,8 -31.66666,13 -53,15 -8,1.33331 -38,2 -90,2 h -21 c -32.66667,0 -50,-3 -52,-9 -2,-2.66669 -3,-51 -3,-145 V 342 h 71 37 c 34,0 62,2.33334 84,7 22,4.66666 41.33334,15.66666 58,33 17.33334,19.33334 26,54.66666 26,106 z" /></g><g
           transform="matrix(0.06067745,0,0,-0.06120183,685.61035,848.64105)"
           id="g134"><path
             id="path136"
             style="fill:#000000;fill-opacity:1;fill-rule:nonzero;stroke:none"
             d="m 114,620 c -0.66666,0.66669 -2,2 -4,4 -2,2 -3,3 -3,3 0,0 -1.33334,1 -4,3 -2.66666,2 -4.333336,2.66669 -5,2 -0.666664,-0.66669 -3,0 -7,2 -4,2 -7.666664,2.33331 -11,1 -3.333336,-1.33331 -7.666664,-1 -13,1 -5.333332,2 -11.666668,2.33331 -19,1 H 19 v 46 h 9 c 12,-2 53.333328,-3 124,-3 80.66667,0 128,1 142,3 h 11 v -46 h -21 c -40.66667,-2 -61,-7.66669 -61,-17 0,-1.33331 30,-84 90,-248 60,-164 90.33334,-246 91,-246 l 86,232 c 56.66669,153.33334 85,233 85,239 0,12.66669 -7,22.33331 -21,29 -14,6.66669 -29.33331,10.33331 -46,11 h -5 v 46 h 9 c 10,-2 48.33331,-3 115,-3 60.66669,0 93,1 97,3 h 6 v -46 h -7 C 673,637 641,623.33331 627,596 627,595.33331 589.66669,493.66669 515,291 440.33331,88.333328 402.33334,-13.333333 401,-14 c -3.33334,-5.333334 -9.66666,-8 -19,-8 h -8 -7 c -9.33334,0 -15.66666,2.666666 -19,8 -1.33334,1.333333 -40.33331,107 -117,317 -78,209.33337 -117,315 -117,317 z" /><path
             id="path138"
             style="fill:none;stroke:#000000;stroke-width:1;stroke-linecap:butt;stroke-linejoin:miter;stroke-miterlimit:10;stroke-dasharray:none;stroke-opacity:0.01569998"
             d="m 114,620 c -0.66666,0.66669 -2,2 -4,4 -2,2 -3,3 -3,3 0,0 -1.33334,1 -4,3 -2.66666,2 -4.333336,2.66669 -5,2 -0.666664,-0.66669 -3,0 -7,2 -4,2 -7.666664,2.33331 -11,1 -3.333336,-1.33331 -7.666664,-1 -13,1 -5.333332,2 -11.666668,2.33331 -19,1 H 19 v 46 h 9 c 12,-2 53.333328,-3 124,-3 80.66667,0 128,1 142,3 h 11 v -46 h -21 c -40.66667,-2 -61,-7.66669 -61,-17 0,-1.33331 30,-84 90,-248 60,-164 90.33334,-246 91,-246 l 86,232 c 56.66669,153.33334 85,233 85,239 0,12.66669 -7,22.33331 -21,29 -14,6.66669 -29.33331,10.33331 -46,11 h -5 v 46 h 9 c 10,-2 48.33331,-3 115,-3 60.66669,0 93,1 97,3 h 6 v -46 h -7 C 673,637 641,623.33331 627,596 627,595.33331 589.66669,493.66669 515,291 440.33331,88.333328 402.33334,-13.333333 401,-14 c -3.33334,-5.333334 -9.66666,-8 -19,-8 h -8 -7 c -9.33334,0 -15.66666,2.666666 -19,8 -1.33334,1.333333 -40.33331,107 -117,317 -78,209.33337 -117,315 -117,317 z" /></g><g
           transform="matrix(0.04289896,0,0,-0.04326969,731.11841,857.82135)"
           id="g140"><path
             id="path142"
             style="fill:#000000;fill-opacity:1;fill-rule:nonzero;stroke:none"
             d="m 128,619 c -4.66666,4.66669 -8.33334,7.66669 -11,9 -2.66666,1.33331 -8,2.33331 -16,3 -8,0.66669 -22.333328,1.66669 -43,3 H 25 v 46 h 572 v -4 c 1.33331,-4 6,-42.66669 14,-116 8,-73.33334 12.66669,-112 14,-116 v -4 h -40 v 4 c -0.66669,2 -1.66669,9 -3,21 -2.66669,23.33334 -6.66669,43.66666 -12,61 -5.33331,17.33331 -11,32.33331 -17,45 -6,12.66669 -14.33331,22.66669 -25,30 -10.66669,7.33331 -20.66666,13.33331 -30,18 -9.33334,4.66669 -23,8 -41,10 -18,2 -33.33334,3.33331 -46,4 -12.66666,0.66669 -32,1 -58,1 -58,0 -92,-0.33331 -102,-1 -10,-0.66669 -16,-4.33331 -18,-11 0,0 0,-0.33331 0,-1 -0.66667,-1.33331 -1,-42.66669 -1,-124 V 376 h 54 c 48.66666,1.33334 79,4.33334 91,9 24,10.66666 37,38.66666 39,84 0,1.33334 0,2.66666 0,4 v 20 h 40 V 213 h -40 v 20 c -0.66666,23.33334 -3.33334,41.66666 -8,55 -4.66666,13.33334 -13,23 -25,29 -12,6 -23.33334,9.66666 -34,11 -10.66666,1.33334 -28,2 -52,2 -4.66666,0 -8.33334,0 -11,0 H 232 V 196 114 c 0,-38 1.66667,-58.666668 5,-62 4,-3.333332 21.33334,-5 52,-5 h 51 51 c 24.66666,0 45,1 61,3 16,2 33.66666,6 53,12 19.33331,6 35,16 47,30 12,14 22.66669,32 32,54 6.66669,17.33333 11.66669,35.33333 15,54 3.33331,18.66667 6,34.33333 8,47 2,12.66666 3.66669,20.33334 5,23 v 3 h 40 v -3 C 651.33331,268 644.66669,223.66667 632,137 619.33331,50.333328 612,5.666667 610,3 V 0 H 25 v 46 h 33 c 28,0.666668 45,1.666668 51,3 6,1.333332 12.33334,5.333332 19,12 z" /><path
             id="path144"
             style="fill:none;stroke:#000000;stroke-width:1;stroke-linecap:butt;stroke-linejoin:miter;stroke-miterlimit:10;stroke-dasharray:none;stroke-opacity:0.01180001"
             d="m 128,619 c -4.66666,4.66669 -8.33334,7.66669 -11,9 -2.66666,1.33331 -8,2.33331 -16,3 -8,0.66669 -22.333328,1.66669 -43,3 H 25 v 46 h 572 v -4 c 1.33331,-4 6,-42.66669 14,-116 8,-73.33334 12.66669,-112 14,-116 v -4 h -40 v 4 c -0.66669,2 -1.66669,9 -3,21 -2.66669,23.33334 -6.66669,43.66666 -12,61 -5.33331,17.33331 -11,32.33331 -17,45 -6,12.66669 -14.33331,22.66669 -25,30 -10.66669,7.33331 -20.66666,13.33331 -30,18 -9.33334,4.66669 -23,8 -41,10 -18,2 -33.33334,3.33331 -46,4 -12.66666,0.66669 -32,1 -58,1 -58,0 -92,-0.33331 -102,-1 -10,-0.66669 -16,-4.33331 -18,-11 0,0 0,-0.33331 0,-1 -0.66667,-1.33331 -1,-42.66669 -1,-124 V 376 h 54 c 48.66666,1.33334 79,4.33334 91,9 24,10.66666 37,38.66666 39,84 0,1.33334 0,2.66666 0,4 v 20 h 40 V 213 h -40 v 20 c -0.66666,23.33334 -3.33334,41.66666 -8,55 -4.66666,13.33334 -13,23 -25,29 -12,6 -23.33334,9.66666 -34,11 -10.66666,1.33334 -28,2 -52,2 -4.66666,0 -8.33334,0 -11,0 H 232 V 196 114 c 0,-38 1.66667,-58.666668 5,-62 4,-3.333332 21.33334,-5 52,-5 h 51 51 c 24.66666,0 45,1 61,3 16,2 33.66666,6 53,12 19.33331,6 35,16 47,30 12,14 22.66669,32 32,54 6.66669,17.33333 11.66669,35.33333 15,54 3.33331,18.66667 6,34.33333 8,47 2,12.66666 3.66669,20.33334 5,23 v 3 h 40 v -3 C 651.33331,268 644.66669,223.66667 632,137 619.33331,50.333328 612,5.666667 610,3 V 0 H 25 v 46 h 33 c 28,0.666668 45,1.666668 51,3 6,1.333332 12.33334,5.333332 19,12 z" /></g><g
           transform="matrix(0.04289896,0,0,-0.04326969,760.30432,857.82135)"
           id="g146"><path
             id="path148"
             style="fill:#000000;fill-opacity:1;fill-rule:nonzero;stroke:none"
             d="m 130,622 c -4.66666,4.66669 -8.33334,7.66669 -11,9 -2.66666,1.33331 -8,2.33331 -16,3 -8,0.66669 -22.333328,1.66669 -43,3 H 27 v 46 h 175 34 64 c 50.66666,0 89.66666,-2 117,-6 27.33334,-4 55,-13.66669 83,-29 63.33331,-32 99.66669,-75.66669 109,-131 0.66669,-3.33331 1,-8.66666 1,-16 0,-22 -5.33331,-42.66666 -16,-62 -10.66669,-19.33334 -23.33331,-35 -38,-47 -14.66669,-12 -29.66669,-22.33334 -45,-31 -15.33334,-8.66666 -28.33334,-14.66666 -39,-18 l -16,-5 c 2,-2 5.66666,-4 11,-6 20,-10.66666 36.33334,-22 49,-34 12.66669,-12 22.33331,-26.66666 29,-44 6.66669,-17.33333 11.33331,-31.66667 14,-43 2.66669,-11.33333 5.66669,-30 9,-56 3.33331,-26 6.66669,-46.33334 10,-61 6.66669,-32 14.66669,-53 24,-63 9.33331,-10 22,-15 38,-15 h 5 c 10,0 19.66669,5.333332 29,16 9.33331,10.666668 15.33331,29 18,55 0,7.333336 1.33331,12 4,14 2.66669,2 8,3.33334 16,4 8,0.66666 13.33331,0 16,-2 2.66669,-2 4,-6.333336 4,-13 0,-20.666672 -5.33331,-41.666664 -16,-63 -10.66669,-21.333334 -25.33331,-35.666666 -44,-43 -10.66669,-4 -24.66669,-6 -42,-6 -99.33331,4 -156.66666,41.333328 -172,112 -1.33334,7.333336 -2,31.66666 -2,73 0,41.33334 -2.33334,69 -7,83 -12.66666,38.66666 -38,63.33334 -76,74 l -10,2 -66,1 H 231 V 192 l 1,-131 c 4,-6.666668 9.66667,-10.666668 17,-12 7.33334,-1.333332 24.66666,-2.333332 52,-3 h 33 V 0 H 323 C 309,2 261.66669,3 181,3 99.666664,3 52,2 38,0 H 27 v 46 h 33 c 28,0.666668 45,1.666668 51,3 6,1.333332 12.33334,5.333332 19,12 z M 491,499 v 10 c 0,12 -0.33334,22 -1,30 -0.66666,8 -3.66666,18.33331 -9,31 -5.33334,12.66669 -11.66666,23 -19,31 -7.33334,8 -20,15.33331 -38,22 -18,6.66669 -38.66666,11 -62,13 -1.33334,0 -8.66666,0 -22,0 -13.33334,0 -25.33334,0.33331 -36,1 h -21 c -30,0 -46.33333,-3 -49,-9 -2,-2.66669 -3,-48 -3,-136 V 360 h 58 c 67.33334,0 115.66666,6 145,18 29.33334,12 47.66666,38 55,78 1.33334,7.33334 2,21.66666 2,43 z" /><path
             id="path150"
             style="fill:none;stroke:#000000;stroke-width:1;stroke-linecap:butt;stroke-linejoin:miter;stroke-miterlimit:10;stroke-dasharray:none;stroke-opacity:0.01180001"
             d="m 130,622 c -4.66666,4.66669 -8.33334,7.66669 -11,9 -2.66666,1.33331 -8,2.33331 -16,3 -8,0.66669 -22.333328,1.66669 -43,3 H 27 v 46 h 175 34 64 c 50.66666,0 89.66666,-2 117,-6 27.33334,-4 55,-13.66669 83,-29 63.33331,-32 99.66669,-75.66669 109,-131 0.66669,-3.33331 1,-8.66666 1,-16 0,-22 -5.33331,-42.66666 -16,-62 -10.66669,-19.33334 -23.33331,-35 -38,-47 -14.66669,-12 -29.66669,-22.33334 -45,-31 -15.33334,-8.66666 -28.33334,-14.66666 -39,-18 l -16,-5 c 2,-2 5.66666,-4 11,-6 20,-10.66666 36.33334,-22 49,-34 12.66669,-12 22.33331,-26.66666 29,-44 6.66669,-17.33333 11.33331,-31.66667 14,-43 2.66669,-11.33333 5.66669,-30 9,-56 3.33331,-26 6.66669,-46.33334 10,-61 6.66669,-32 14.66669,-53 24,-63 9.33331,-10 22,-15 38,-15 h 5 c 10,0 19.66669,5.333332 29,16 9.33331,10.666668 15.33331,29 18,55 0,7.333336 1.33331,12 4,14 2.66669,2 8,3.33334 16,4 8,0.66666 13.33331,0 16,-2 2.66669,-2 4,-6.333336 4,-13 0,-20.666672 -5.33331,-41.666664 -16,-63 -10.66669,-21.333334 -25.33331,-35.666666 -44,-43 -10.66669,-4 -24.66669,-6 -42,-6 -99.33331,4 -156.66666,41.333328 -172,112 -1.33334,7.333336 -2,31.66666 -2,73 0,41.33334 -2.33334,69 -7,83 -12.66666,38.66666 -38,63.33334 -76,74 l -10,2 -66,1 H 231 V 192 l 1,-131 c 4,-6.666668 9.66667,-10.666668 17,-12 7.33334,-1.333332 24.66666,-2.333332 52,-3 h 33 V 0 H 323 C 309,2 261.66669,3 181,3 99.666664,3 52,2 38,0 H 27 v 46 h 33 c 28,0.666668 45,1.666668 51,3 6,1.333332 12.33334,5.333332 19,12 z M 491,499 v 10 c 0,12 -0.33334,22 -1,30 -0.66666,8 -3.66666,18.33331 -9,31 -5.33334,12.66669 -11.66666,23 -19,31 -7.33334,8 -20,15.33331 -38,22 -18,6.66669 -38.66666,11 -62,13 -1.33334,0 -8.66666,0 -22,0 -13.33334,0 -25.33334,0.33331 -36,1 h -21 c -30,0 -46.33333,-3 -49,-9 -2,-2.66669 -3,-48 -3,-136 V 360 h 58 c 67.33334,0 115.66666,6 145,18 29.33334,12 47.66666,38 55,78 1.33334,7.33334 2,21.66666 2,43 z" /></g></g></g><g
       id="g152"><g
         clip-path="url(#clipPath158)"
         id="g154"><g
           transform="matrix(2.9779058,0,0,2.9779058,1.4889529,1.4889529)"
           id="g160"><path
             id="path162"
             style="fill:#ffffff;fill-opacity:1;fill-rule:nonzero;stroke:none"
             d="m 234.57001,108.79 c 2.45999,-0.86 5.43998,0.85 7.76999,1.8 2.33,0.95 4.74,1.77 6.22,3.93 1.47,2.15 3.16,6.05 2.65001,8.99 -0.52001,2.95 -3.62001,6.9 -5.73001,8.66 -2.11,1.75999 -4.2,2.11 -6.93,1.92 -2.72,-0.19001 -7.35,-1.22001 -9.41,-3.06 -2.06999,-1.85001 -2.7,-5.38 -2.98,-8.02 -0.28,-2.64 -0.25,-5.5 1.30001,-7.81 1.55999,-2.3 6.11999,-4.96 8.03999,-6.02 1.92,-1.06 3.5,-0.62 3.49001,-0.36 m 4.73999,0.37 c 2.51001,0.51 2.77999,2.23 4.04,4.56 1.26999,2.32 3.62999,6.39 3.55001,9.4 -0.09,3.01 -1.86,6.82 -4.08,8.65 -2.22001,1.83 -6.52001,2.62999 -9.25,2.34 -2.72001,-0.28999 -5.20002,-2.27001 -7.12001,-4.06 -1.93,-1.8 -3.95,-4.32 -4.40999,-6.7 -0.47,-2.38 0.36,-5.21 1.62999,-7.57 1.28,-2.35 3.47,-5.68 6.03,-6.56 2.55999,-0.88 7.79,1.03 9.34001,1.29 1.54998,0.26 0.12999,0.09 -0.03,0.28" /><path
             id="path164"
             style="fill:none;stroke:#000000;stroke-width:1;stroke-linecap:butt;stroke-linejoin:miter;stroke-miterlimit:10;stroke-dasharray:none;stroke-opacity:1"
             d="m 235.86,108.65 c 2.7,-0.67 7.17999,0.11 9.67,1.68 2.47999,1.58 4.69,5.02 5.22,7.76 0.53999,2.74 -0.91,6.12 -2.03,8.68 -1.11999,2.56 -2.41,5.67 -4.68001,6.7 -2.25999,1.03 -6.12999,0.31 -8.90999,-0.52 -2.77999,-0.83001 -6.19,-2.23 -7.77,-4.46 -1.59,-2.24 -2.06,-6.23 -1.74,-8.94 0.32,-2.71 1.5,-5.54 3.65,-7.31 2.15999,-1.77 7.18,-2.71 9.28,-3.29 2.09999,-0.59 3.09,-0.27 3.32,-0.22 m -10.64,1.52 c 2.72,-1.54 8.55999,-2.7 11.36,-1.95 2.80999,0.75 4.11,3.94 5.44999,6.44 1.34001,2.51 2.69001,6.26 2.61,8.6 -0.08,2.35 -1.09999,3.47 -3.08999,5.49 -1.98,2.03 -6.12,6.03999 -8.80001,6.67999 -2.66999,0.64 -5.11,-1.28999 -7.25999,-2.83 -2.14999,-1.53999 -4.91,-3.46998 -5.64,-6.39999 -0.73,-2.93 0.25,-8.63 1.24001,-11.16 0.98999,-2.53 3.61,-3.02 4.69999,-4 1.09,-0.97 1.52001,-1.93 1.82,-1.83" /><path
             id="path166"
             style="fill:#ffffff;fill-opacity:1;fill-rule:nonzero;stroke:none"
             d="m 189.11,121.94 32.89,-0.27 -0.52,5.83 5.68,4.63 3.48,6.04999 5.89,1.59001 8.29001,-4.12001 5.67,-0.81999 4.77999,-5.89 -1.36,-7.85 33.32999,1.27 -1.22998,87.56 -98.87001,-2.2 0.92,-85.52" /><path
             id="path168"
             style="fill:none;stroke:#000000;stroke-width:1;stroke-linecap:butt;stroke-linejoin:miter;stroke-miterlimit:10;stroke-dasharray:none;stroke-opacity:1"
             d="m 188,121.5 c 5.08,-1.33 14.67,-1.27 32.5,0 m -32.5,0 c 9.75999,0.63 19.92,0.82 32.5,0 m 0,0 c 0.47,7.7 7.12,19.41 17.5,17.5 m -17.5,-17.5 c 1.10001,10.77 8.17999,19.53999 17.5,17.5 m 0,0 c 10.75,-1.61 16.7,-6.51 17.5,-17.5 M 238,139 c 11.36,-1.64 18.48001,-7.16 17.5,-17.5 m 0,0 c 7.57999,0.23 18.81,-1.38 32.5,0 m -32.5,0 c 8.57999,0.77 18.37,-0.51 32.5,0 m 0,0 c -0.51001,34.22 2.22,67.63 0,87.5 m 0,-87.5 c 0.23001,31.91 -0.20999,61.35001 0,87.5 m 0,0 c -34.96001,1.10001 -70.07001,-2.55 -100,0 m 100,0 c -20.59,0.19 -42.45,-0.28 -100,0 m 0,0 c 0.11,-30.50999 1.39,-63.59 0,-87.5 m 0,87.5 c 0.14,-23.12 -0.27,-46.98 0,-87.5" /></g></g></g><g
       id="g170"><g
         clip-path="url(#clipPath176)"
         id="g172"><g
           transform="matrix(0.061486,0,0,-0.0611973,619.40442,538.93768)"
           id="g178"><path
             id="path180"
             style="fill:#000000;fill-opacity:1;fill-rule:nonzero;stroke:none"
             d="m 55,507 c 0,55.33331 19,102 57,140 38,38 81.66666,57 131,57 h 14 c 56.66666,0 106,-21 148,-63 l 21,31 c 3.33334,4.66669 6.66666,9.66669 10,15 3.33334,5.33331 6.66666,9.66669 10,13 l 3,4 c 0.66666,0 2,0 4,0 2,0 4,0.33331 6,1 h 4 c 2,0 5,-2 9,-6 V 462 l -6,-6 h -18 c -7.33334,0 -11.66666,1 -13,3 -1.33334,2 -3,8.66666 -5,20 -11.33334,84 -45,139.66669 -101,167 -24.66666,10.66669 -49.66666,16 -75,16 -35.33334,0 -64,-12 -86,-36 -22,-24 -33,-52 -33,-84 0,-22.66669 5.66667,-43.33334 17,-62 11.33333,-18.66666 27.33333,-33.66666 48,-45 6.66667,-2.66666 35.33333,-10.33334 86,-23 50.66666,-12.66666 78.66666,-20.33334 84,-23 38,-14.66666 69,-39.66666 93,-75 24,-35.33334 36.33334,-76.33333 37,-123 C 500,137 482.66666,88.333336 448,45 413.33334,1.6666641 364.33334,-20.333334 301,-21 263.66666,-21 230.33333,-15.333334 201,-4 171.66667,7.333334 151.33333,17.666666 140,27 L 122,41 C 119.33334,37.666668 114.33334,31 107,21 99.666664,11 93,1.666667 87,-7 c -6,-8.666667 -9,-13.333334 -9,-14 -1.333336,-0.666666 -4.666664,-1 -10,-1 h -4 c -2,0 -5,2 -9,6 v 117 c 0,79.33334 0.333332,119.66667 1,121 1.333332,3.33333 8,5 20,5 h 13 c 4,-4 6,-8.33333 6,-13 0,-21.33333 3.333336,-42.33333 10,-63 6.66666,-20.66667 18,-41 34,-61 16,-20 38,-36 66,-48 28,-12 61.33334,-18 100,-18 31.33334,0 58.33334,12.666664 81,38 22.66666,25.333336 34,56.33333 34,93 0,28.66667 -7.33334,54.66667 -22,78 -14.66666,23.33334 -34,39.33334 -58,48 -37.33334,9.33334 -62,15.66666 -74,19 -3.33334,0.66666 -12.33333,2.66666 -27,6 -14.66667,3.33334 -25.66667,6 -33,8 -7.33333,2 -18,5.66666 -32,11 -14,5.33334 -25,11.33334 -33,18 -8,6.66666 -17.66666,14.66666 -29,24 -11.33334,9.33334 -20.333336,21 -27,35 -20,32.66666 -30,67.66666 -30,105 z" /><path
             id="path182"
             style="fill:none;stroke:#000000;stroke-width:1;stroke-linecap:butt;stroke-linejoin:miter;stroke-miterlimit:10;stroke-dasharray:none;stroke-opacity:0.01569998"
             d="m 55,507 c 0,55.33331 19,102 57,140 38,38 81.66666,57 131,57 h 14 c 56.66666,0 106,-21 148,-63 l 21,31 c 3.33334,4.66669 6.66666,9.66669 10,15 3.33334,5.33331 6.66666,9.66669 10,13 l 3,4 c 0.66666,0 2,0 4,0 2,0 4,0.33331 6,1 h 4 c 2,0 5,-2 9,-6 V 462 l -6,-6 h -18 c -7.33334,0 -11.66666,1 -13,3 -1.33334,2 -3,8.66666 -5,20 -11.33334,84 -45,139.66669 -101,167 -24.66666,10.66669 -49.66666,16 -75,16 -35.33334,0 -64,-12 -86,-36 -22,-24 -33,-52 -33,-84 0,-22.66669 5.66667,-43.33334 17,-62 11.33333,-18.66666 27.33333,-33.66666 48,-45 6.66667,-2.66666 35.33333,-10.33334 86,-23 50.66666,-12.66666 78.66666,-20.33334 84,-23 38,-14.66666 69,-39.66666 93,-75 24,-35.33334 36.33334,-76.33333 37,-123 C 500,137 482.66666,88.333336 448,45 413.33334,1.6666641 364.33334,-20.333334 301,-21 263.66666,-21 230.33333,-15.333334 201,-4 171.66667,7.333334 151.33333,17.666666 140,27 L 122,41 C 119.33334,37.666668 114.33334,31 107,21 99.666664,11 93,1.666667 87,-7 c -6,-8.666667 -9,-13.333334 -9,-14 -1.333336,-0.666666 -4.666664,-1 -10,-1 h -4 c -2,0 -5,2 -9,6 v 117 c 0,79.33334 0.333332,119.66667 1,121 1.333332,3.33333 8,5 20,5 h 13 c 4,-4 6,-8.33333 6,-13 0,-21.33333 3.333336,-42.33333 10,-63 6.66666,-20.66667 18,-41 34,-61 16,-20 38,-36 66,-48 28,-12 61.33334,-18 100,-18 31.33334,0 58.33334,12.666664 81,38 22.66666,25.333336 34,56.33333 34,93 0,28.66667 -7.33334,54.66667 -22,78 -14.66666,23.33334 -34,39.33334 -58,48 -37.33334,9.33334 -62,15.66666 -74,19 -3.33334,0.66666 -12.33333,2.66666 -27,6 -14.66667,3.33334 -25.66667,6 -33,8 -7.33333,2 -18,5.66666 -32,11 -14,5.33334 -25,11.33334 -33,18 -8,6.66666 -17.66666,14.66666 -29,24 -11.33334,9.33334 -20.333336,21 -27,35 -20,32.66666 -30,67.66666 -30,105 z" /></g><g
           transform="matrix(0.061486,0,0,-0.0611973,653.59064,538.93768)"
           id="g184"><path
             id="path186"
             style="fill:#000000;fill-opacity:1;fill-rule:nonzero;stroke:none"
             d="m 130,622 c -4.66666,4.66669 -8.33334,7.66669 -11,9 -2.66666,1.33331 -8,2.33331 -16,3 -8,0.66669 -22.333328,1.66669 -43,3 H 27 v 46 h 187 c 15.33333,0 36,0 62,0 26,0 44.33334,0.33331 55,1 58.66666,0 105.33334,-4.33331 140,-13 34.66666,-8.66669 66.66669,-27 96,-55 38,-35.33331 57,-77.66669 57,-127 0,-45.33334 -17,-84.33334 -51,-117 -34,-32.66666 -74.66666,-54.33334 -122,-65 -14.66666,-3.33334 -55.66666,-5.33334 -123,-6 H 234 V 181 c 0,-79.33334 1,-120.333332 3,-123 5.33333,-7.333332 27.66666,-11.333332 67,-12 h 33 V 0 H 326 C 312,2 264,3 182,3 92,3 44,2 38,0 H 27 v 46 h 33 c 28,0.666668 45,1.666668 51,3 6,1.333332 12.33334,5.333332 19,12 z M 507,488 c 0,17.33334 -0.33334,30.66669 -1,40 -0.66666,9.33331 -2.66666,21.33331 -6,36 -3.33334,14.66669 -9,25.66669 -17,33 -8,7.33331 -19,15 -33,23 -14,8 -31.66666,13 -53,15 -8,1.33331 -38,2 -90,2 h -21 c -32.66667,0 -50,-3 -52,-9 -2,-2.66669 -3,-51 -3,-145 V 342 h 71 37 c 34,0 62,2.33334 84,7 22,4.66666 41.33334,15.66666 58,33 17.33334,19.33334 26,54.66666 26,106 z" /><path
             id="path188"
             style="fill:none;stroke:#000000;stroke-width:1;stroke-linecap:butt;stroke-linejoin:miter;stroke-miterlimit:10;stroke-dasharray:none;stroke-opacity:0.01569998"
             d="m 130,622 c -4.66666,4.66669 -8.33334,7.66669 -11,9 -2.66666,1.33331 -8,2.33331 -16,3 -8,0.66669 -22.333328,1.66669 -43,3 H 27 v 46 h 187 c 15.33333,0 36,0 62,0 26,0 44.33334,0.33331 55,1 58.66666,0 105.33334,-4.33331 140,-13 34.66666,-8.66669 66.66669,-27 96,-55 38,-35.33331 57,-77.66669 57,-127 0,-45.33334 -17,-84.33334 -51,-117 -34,-32.66666 -74.66666,-54.33334 -122,-65 -14.66666,-3.33334 -55.66666,-5.33334 -123,-6 H 234 V 181 c 0,-79.33334 1,-120.333332 3,-123 5.33333,-7.333332 27.66666,-11.333332 67,-12 h 33 V 0 H 326 C 312,2 264,3 182,3 92,3 44,2 38,0 H 27 v 46 h 33 c 28,0.666668 45,1.666668 51,3 6,1.333332 12.33334,5.333332 19,12 z M 507,488 c 0,17.33334 -0.33334,30.66669 -1,40 -0.66666,9.33331 -2.66666,21.33331 -6,36 -3.33334,14.66669 -9,25.66669 -17,33 -8,7.33331 -19,15 -33,23 -14,8 -31.66666,13 -53,15 -8,1.33331 -38,2 -90,2 h -21 c -32.66667,0 -50,-3 -52,-9 -2,-2.66669 -3,-51 -3,-145 V 342 h 71 37 c 34,0 62,2.33334 84,7 22,4.66666 41.33334,15.66666 58,33 17.33334,19.33334 26,54.66666 26,106 z" /></g><g
           transform="matrix(0.061486,0,0,-0.0611973,695.52411,538.93768)"
           id="g190"><path
             id="path192"
             style="fill:#000000;fill-opacity:1;fill-rule:nonzero;stroke:none"
             d="m 114,620 c -0.66666,0.66669 -2,2 -4,4 -2,2 -3,3 -3,3 0,0 -1.33334,1 -4,3 -2.66666,2 -4.333336,2.66669 -5,2 -0.666664,-0.66669 -3,0 -7,2 -4,2 -7.666664,2.33331 -11,1 -3.333336,-1.33331 -7.666664,-1 -13,1 -5.333332,2 -11.666668,2.33331 -19,1 H 19 v 46 h 9 c 12,-2 53.333328,-3 124,-3 80.66667,0 128,1 142,3 h 11 v -46 h -21 c -40.66667,-2 -61,-7.66669 -61,-17 0,-1.33331 30,-84 90,-248 60,-164 90.33334,-246 91,-246 l 86,232 c 56.66669,153.33334 85,233 85,239 0,12.66669 -7,22.33331 -21,29 -14,6.66669 -29.33331,10.33331 -46,11 h -5 v 46 h 9 c 10,-2 48.33331,-3 115,-3 60.66669,0 93,1 97,3 h 6 v -46 h -7 C 673,637 641,623.33331 627,596 627,595.33331 589.66669,493.66669 515,291 440.33331,88.333328 402.33334,-13.333333 401,-14 c -3.33334,-5.333334 -9.66666,-8 -19,-8 h -8 -7 c -9.33334,0 -15.66666,2.666666 -19,8 -1.33334,1.333333 -40.33331,107 -117,317 -78,209.33337 -117,315 -117,317 z" /><path
             id="path194"
             style="fill:none;stroke:#000000;stroke-width:1;stroke-linecap:butt;stroke-linejoin:miter;stroke-miterlimit:10;stroke-dasharray:none;stroke-opacity:0.01569998"
             d="m 114,620 c -0.66666,0.66669 -2,2 -4,4 -2,2 -3,3 -3,3 0,0 -1.33334,1 -4,3 -2.66666,2 -4.333336,2.66669 -5,2 -0.666664,-0.66669 -3,0 -7,2 -4,2 -7.666664,2.33331 -11,1 -3.333336,-1.33331 -7.666664,-1 -13,1 -5.333332,2 -11.666668,2.33331 -19,1 H 19 v 46 h 9 c 12,-2 53.333328,-3 124,-3 80.66667,0 128,1 142,3 h 11 v -46 h -21 c -40.66667,-2 -61,-7.66669 -61,-17 0,-1.33331 30,-84 90,-248 60,-164 90.33334,-246 91,-246 l 86,232 c 56.66669,153.33334 85,233 85,239 0,12.66669 -7,22.33331 -21,29 -14,6.66669 -29.33331,10.33331 -46,11 h -5 v 46 h 9 c 10,-2 48.33331,-3 115,-3 60.66669,0 93,1 97,3 h 6 v -46 h -7 C 673,637 641,623.33331 627,596 627,595.33331 589.66669,493.66669 515,291 440.33331,88.333328 402.33334,-13.333333 401,-14 c -3.33334,-5.333334 -9.66666,-8 -19,-8 h -8 -7 c -9.33334,0 -15.66666,2.666666 -19,8 -1.33334,1.333333 -40.33331,107 -117,317 -78,209.33337 -117,315 -117,317 z" /></g><g
           transform="matrix(0.0434706,0,0,-0.04326649,741.63861,548.42328)"
           id="g196"><path
             id="path198"
             style="fill:#000000;fill-opacity:1;fill-rule:nonzero;stroke:none"
             d="m 55,507 c 0,55.33331 19,102 57,140 38,38 81.66666,57 131,57 h 14 c 56.66666,0 106,-21 148,-63 l 21,31 c 3.33334,4.66669 6.66666,9.66669 10,15 3.33334,5.33331 6.66666,9.66669 10,13 l 3,4 c 0.66666,0 2,0 4,0 2,0 4,0.33331 6,1 h 4 c 2,0 5,-2 9,-6 V 462 l -6,-6 h -18 c -7.33334,0 -11.66666,1 -13,3 -1.33334,2 -3,8.66666 -5,20 -11.33334,84 -45,139.66669 -101,167 -24.66666,10.66669 -49.66666,16 -75,16 -35.33334,0 -64,-12 -86,-36 -22,-24 -33,-52 -33,-84 0,-22.66669 5.66667,-43.33334 17,-62 11.33333,-18.66666 27.33333,-33.66666 48,-45 6.66667,-2.66666 35.33333,-10.33334 86,-23 50.66666,-12.66666 78.66666,-20.33334 84,-23 38,-14.66666 69,-39.66666 93,-75 24,-35.33334 36.33334,-76.33333 37,-123 C 500,137 482.66666,88.333336 448,45 413.33334,1.6666641 364.33334,-20.333334 301,-21 263.66666,-21 230.33333,-15.333334 201,-4 171.66667,7.333334 151.33333,17.666666 140,27 L 122,41 C 119.33334,37.666668 114.33334,31 107,21 99.666664,11 93,1.666667 87,-7 c -6,-8.666667 -9,-13.333334 -9,-14 -1.333336,-0.666666 -4.666664,-1 -10,-1 h -4 c -2,0 -5,2 -9,6 v 117 c 0,79.33334 0.333332,119.66667 1,121 1.333332,3.33333 8,5 20,5 h 13 c 4,-4 6,-8.33333 6,-13 0,-21.33333 3.333336,-42.33333 10,-63 6.66666,-20.66667 18,-41 34,-61 16,-20 38,-36 66,-48 28,-12 61.33334,-18 100,-18 31.33334,0 58.33334,12.666664 81,38 22.66666,25.333336 34,56.33333 34,93 0,28.66667 -7.33334,54.66667 -22,78 -14.66666,23.33334 -34,39.33334 -58,48 -37.33334,9.33334 -62,15.66666 -74,19 -3.33334,0.66666 -12.33333,2.66666 -27,6 -14.66667,3.33334 -25.66667,6 -33,8 -7.33333,2 -18,5.66666 -32,11 -14,5.33334 -25,11.33334 -33,18 -8,6.66666 -17.66666,14.66666 -29,24 -11.33334,9.33334 -20.333336,21 -27,35 -20,32.66666 -30,67.66666 -30,105 z" /><path
             id="path200"
             style="fill:none;stroke:#000000;stroke-width:1;stroke-linecap:butt;stroke-linejoin:miter;stroke-miterlimit:10;stroke-dasharray:none;stroke-opacity:0.01180001"
             d="m 55,507 c 0,55.33331 19,102 57,140 38,38 81.66666,57 131,57 h 14 c 56.66666,0 106,-21 148,-63 l 21,31 c 3.33334,4.66669 6.66666,9.66669 10,15 3.33334,5.33331 6.66666,9.66669 10,13 l 3,4 c 0.66666,0 2,0 4,0 2,0 4,0.33331 6,1 h 4 c 2,0 5,-2 9,-6 V 462 l -6,-6 h -18 c -7.33334,0 -11.66666,1 -13,3 -1.33334,2 -3,8.66666 -5,20 -11.33334,84 -45,139.66669 -101,167 -24.66666,10.66669 -49.66666,16 -75,16 -35.33334,0 -64,-12 -86,-36 -22,-24 -33,-52 -33,-84 0,-22.66669 5.66667,-43.33334 17,-62 11.33333,-18.66666 27.33333,-33.66666 48,-45 6.66667,-2.66666 35.33333,-10.33334 86,-23 50.66666,-12.66666 78.66666,-20.33334 84,-23 38,-14.66666 69,-39.66666 93,-75 24,-35.33334 36.33334,-76.33333 37,-123 C 500,137 482.66666,88.333336 448,45 413.33334,1.6666641 364.33334,-20.333334 301,-21 263.66666,-21 230.33333,-15.333334 201,-4 171.66667,7.333334 151.33333,17.666666 140,27 L 122,41 C 119.33334,37.666668 114.33334,31 107,21 99.666664,11 93,1.666667 87,-7 c -6,-8.666667 -9,-13.333334 -9,-14 -1.333336,-0.666666 -4.666664,-1 -10,-1 h -4 c -2,0 -5,2 -9,6 v 117 c 0,79.33334 0.333332,119.66667 1,121 1.333332,3.33333 8,5 20,5 h 13 c 4,-4 6,-8.33333 6,-13 0,-21.33333 3.333336,-42.33333 10,-63 6.66666,-20.66667 18,-41 34,-61 16,-20 38,-36 66,-48 28,-12 61.33334,-18 100,-18 31.33334,0 58.33334,12.666664 81,38 22.66666,25.333336 34,56.33333 34,93 0,28.66667 -7.33334,54.66667 -22,78 -14.66666,23.33334 -34,39.33334 -58,48 -37.33334,9.33334 -62,15.66666 -74,19 -3.33334,0.66666 -12.33333,2.66666 -27,6 -14.66667,3.33334 -25.66667,6 -33,8 -7.33333,2 -18,5.66666 -32,11 -14,5.33334 -25,11.33334 -33,18 -8,6.66666 -17.66666,14.66666 -29,24 -11.33334,9.33334 -20.333336,21 -27,35 -20,32.66666 -30,67.66666 -30,105 z" /></g><g
           transform="matrix(0.0434706,0,0,-0.04326649,765.80261,548.42328)"
           id="g202"><path
             id="path204"
             style="fill:#000000;fill-opacity:1;fill-rule:nonzero;stroke:none"
             d="m 130,622 c -4.66666,4.66669 -8.33334,7.66669 -11,9 -2.66666,1.33331 -8,2.33331 -16,3 -8,0.66669 -22.333328,1.66669 -43,3 H 27 v 46 h 175 34 64 c 50.66666,0 89.66666,-2 117,-6 27.33334,-4 55,-13.66669 83,-29 63.33331,-32 99.66669,-75.66669 109,-131 0.66669,-3.33331 1,-8.66666 1,-16 0,-22 -5.33331,-42.66666 -16,-62 -10.66669,-19.33334 -23.33331,-35 -38,-47 -14.66669,-12 -29.66669,-22.33334 -45,-31 -15.33334,-8.66666 -28.33334,-14.66666 -39,-18 l -16,-5 c 2,-2 5.66666,-4 11,-6 20,-10.66666 36.33334,-22 49,-34 12.66669,-12 22.33331,-26.66666 29,-44 6.66669,-17.33333 11.33331,-31.66667 14,-43 2.66669,-11.33333 5.66669,-30 9,-56 3.33331,-26 6.66669,-46.33334 10,-61 6.66669,-32 14.66669,-53 24,-63 9.33331,-10 22,-15 38,-15 h 5 c 10,0 19.66669,5.333332 29,16 9.33331,10.666668 15.33331,29 18,55 0,7.333336 1.33331,12 4,14 2.66669,2 8,3.33334 16,4 8,0.66666 13.33331,0 16,-2 2.66669,-2 4,-6.333336 4,-13 0,-20.666672 -5.33331,-41.666664 -16,-63 -10.66669,-21.333334 -25.33331,-35.666666 -44,-43 -10.66669,-4 -24.66669,-6 -42,-6 -99.33331,4 -156.66666,41.333328 -172,112 -1.33334,7.333336 -2,31.66666 -2,73 0,41.33334 -2.33334,69 -7,83 -12.66666,38.66666 -38,63.33334 -76,74 l -10,2 -66,1 H 231 V 192 l 1,-131 c 4,-6.666668 9.66667,-10.666668 17,-12 7.33334,-1.333332 24.66666,-2.333332 52,-3 h 33 V 0 H 323 C 309,2 261.66669,3 181,3 99.666664,3 52,2 38,0 H 27 v 46 h 33 c 28,0.666668 45,1.666668 51,3 6,1.333332 12.33334,5.333332 19,12 z M 491,499 v 10 c 0,12 -0.33334,22 -1,30 -0.66666,8 -3.66666,18.33331 -9,31 -5.33334,12.66669 -11.66666,23 -19,31 -7.33334,8 -20,15.33331 -38,22 -18,6.66669 -38.66666,11 -62,13 -1.33334,0 -8.66666,0 -22,0 -13.33334,0 -25.33334,0.33331 -36,1 h -21 c -30,0 -46.33333,-3 -49,-9 -2,-2.66669 -3,-48 -3,-136 V 360 h 58 c 67.33334,0 115.66666,6 145,18 29.33334,12 47.66666,38 55,78 1.33334,7.33334 2,21.66666 2,43 z" /><path
             id="path206"
             style="fill:none;stroke:#000000;stroke-width:1;stroke-linecap:butt;stroke-linejoin:miter;stroke-miterlimit:10;stroke-dasharray:none;stroke-opacity:0.01180001"
             d="m 130,622 c -4.66666,4.66669 -8.33334,7.66669 -11,9 -2.66666,1.33331 -8,2.33331 -16,3 -8,0.66669 -22.333328,1.66669 -43,3 H 27 v 46 h 175 34 64 c 50.66666,0 89.66666,-2 117,-6 27.33334,-4 55,-13.66669 83,-29 63.33331,-32 99.66669,-75.66669 109,-131 0.66669,-3.33331 1,-8.66666 1,-16 0,-22 -5.33331,-42.66666 -16,-62 -10.66669,-19.33334 -23.33331,-35 -38,-47 -14.66669,-12 -29.66669,-22.33334 -45,-31 -15.33334,-8.66666 -28.33334,-14.66666 -39,-18 l -16,-5 c 2,-2 5.66666,-4 11,-6 20,-10.66666 36.33334,-22 49,-34 12.66669,-12 22.33331,-26.66666 29,-44 6.66669,-17.33333 11.33331,-31.66667 14,-43 2.66669,-11.33333 5.66669,-30 9,-56 3.33331,-26 6.66669,-46.33334 10,-61 6.66669,-32 14.66669,-53 24,-63 9.33331,-10 22,-15 38,-15 h 5 c 10,0 19.66669,5.333332 29,16 9.33331,10.666668 15.33331,29 18,55 0,7.333336 1.33331,12 4,14 2.66669,2 8,3.33334 16,4 8,0.66666 13.33331,0 16,-2 2.66669,-2 4,-6.333336 4,-13 0,-20.666672 -5.33331,-41.666664 -16,-63 -10.66669,-21.333334 -25.33331,-35.666666 -44,-43 -10.66669,-4 -24.66669,-6 -42,-6 -99.33331,4 -156.66666,41.333328 -172,112 -1.33334,7.333336 -2,31.66666 -2,73 0,41.33334 -2.33334,69 -7,83 -12.66666,38.66666 -38,63.33334 -76,74 l -10,2 -66,1 H 231 V 192 l 1,-131 c 4,-6.666668 9.66667,-10.666668 17,-12 7.33334,-1.333332 24.66666,-2.333332 52,-3 h 33 V 0 H 323 C 309,2 261.66669,3 181,3 99.666664,3 52,2 38,0 H 27 v 46 h 33 c 28,0.666668 45,1.666668 51,3 6,1.333332 12.33334,5.333332 19,12 z M 491,499 v 10 c 0,12 -0.33334,22 -1,30 -0.66666,8 -3.66666,18.33331 -9,31 -5.33334,12.66669 -11.66666,23 -19,31 -7.33334,8 -20,15.33331 -38,22 -18,6.66669 -38.66666,11 -62,13 -1.33334,0 -8.66666,0 -22,0 -13.33334,0 -25.33334,0.33331 -36,1 h -21 c -30,0 -46.33333,-3 -49,-9 -2,-2.66669 -3,-48 -3,-136 V 360 h 58 c 67.33334,0 115.66666,6 145,18 29.33334,12 47.66666,38 55,78 1.33334,7.33334 2,21.66666 2,43 z" /></g></g></g><g
       id="g208"><g
         clip-path="url(#clipPath214)"
         id="g210"><g
           transform="matrix(2.9779058,0,0,2.9779058,1.4889529,1.4889529)"
           id="g216"><path
             id="path218"
             style="fill:#ffffff;fill-opacity:1;fill-rule:nonzero;stroke:none"
             d="m 238.95,2.0599999 c 2.26001,0.06 4.30999,2.3200002 5.79001,4.5 C 246.22,8.7399998 247.81,12.270001 247.84,15.14 c 0.03,2.87 -1.26,6.489999 -2.91001,8.650001 C 243.27,25.950001 240.56,27.52 237.91,28.1 235.25,28.68 231.16,28.73 229,27.290001 226.84,25.84 225.61,22.09 224.94,19.440001 224.25999,16.799999 224.21001,14.06 224.96001,11.42 225.7,8.7799997 227.08,5.0799999 229.39,3.6100001 c 2.32001,-1.48 7.42,-1.22 9.45,-1.0500002 2.04,0.1800001 2.80999,1.6799999 2.78,2.08 m -9.86001,-0.33 C 234.07001,3.4300001 238.11,1.46 240.77,2.3699999 243.44,3.28 246.82001,6.9099998 247.74001,9.7600002 248.66,12.62 247.16,16.969999 246.32001,19.49 245.49001,22.01 244.56,23.6 242.72,24.870001 240.89,26.139999 237.60001,27.16 235.3,27.09 233,27.02 230.69,26.370001 228.92999,24.459999 227.16,22.559999 225.41,18.48 224.69,15.64 223.97,12.81 223.53,9.4300003 224.60001,7.46 225.67,5.5 229.57001,4.54 231.12,3.8400002 232.66,3.1500001 233.69,3.0799999 233.86,3.3" /><path
             id="path220"
             style="fill:none;stroke:#000000;stroke-width:1;stroke-linecap:butt;stroke-linejoin:miter;stroke-miterlimit:10;stroke-dasharray:none;stroke-opacity:1"
             d="m 233.96001,3.3600001 c 2.39999,-0.73 5.12999,-0.67 7.14999,0.4099999 2.02,1.0799999 4.03,3.6100001 4.96001,6.0700002 C 247,12.31 247.24001,15.82 246.67999,18.530001 246.13,21.24 244.53,24.459999 242.73,26.120001 c -1.80001,1.66 -4.46,2.57 -6.87,2.369999 -2.41,-0.209999 -5.73,-1.64 -7.58,-3.59 -1.85001,-1.959999 -3.27001,-5.16 -3.52001,-8.14 -0.25,-2.97 -0.05,-7.3100002 2.03,-9.7000001 C 228.87,4.6599998 234.84,3.02 237.24001,2.3800001 239.64,1.74 241.33,3.03 241.21001,3.1900001 m 1.64,1.8899998 c 2.39,1.3600002 4.25,3.7200003 4.94999,5.9700001 0.70999,2.25 0.33,4.999999 -0.72,7.509999 C 246.03,21.07 243.66,24.67 241.48,26.09 c -2.17,1.43 -4.9,1.5 -7.45,1.030001 C 231.48,26.66 227.60001,25.24 226.17999,23.280001 224.75999,21.33 225.46001,17.91 225.49001,15.39 c 0.04,-2.53 -0.5,-5.01 0.88999,-7.2700001 1.4,-2.25 5.14,-5.81 7.48,-6.2399999 2.34,-0.4399999 5.48,3.1799999 6.59,3.6099998 1.11,0.4300003 -0.19001,-1.04 0.07,-1.04" /><path
             id="path222"
             style="fill:#ffffff;fill-opacity:1;fill-rule:nonzero;stroke:none"
             d="m 184.38,17.190001 35.7,0.1 -1.22,4.019998 3.71001,8.510001 7.55999,1.729999 5.94001,-0.209999 6.26999,-1.469999 5.16,-2.150002 4.41,-3.42 1.62999,-7.16 32.97002,-0.209999 -0.06,87.19 -102.24,-0.02 1.55999,-86.67" /><path
             id="path224"
             style="fill:none;stroke:#000000;stroke-width:1;stroke-linecap:butt;stroke-linejoin:miter;stroke-miterlimit:10;stroke-dasharray:none;stroke-opacity:1"
             d="m 186,15.5 c 10.42,-0.37 15.37,1.690001 32.5,0 m -32.5,0 c 11.83,-0.76 23.53,-0.41 32.5,0 m 0,0 c -0.33,7.969999 6.67999,16.32 17.5,17.5 M 218.5,15.5 c 2.27,8.879999 7.53,18.560001 17.5,17.5 m 0,0 c 10.06,-1.16 15.86,-5.889999 17.5,-17.5 M 236,33 c 8.06,0.299999 18.94,-7.360001 17.5,-17.5 m 0,0 c 7.64001,1.66 14.70999,-1.36 32.5,0 m -32.5,0 c 7.82001,-0.18 16.32999,-0.08 32.5,0 m 0,0 c -0.41,23.220001 -0.42001,49.160004 0,87.5 m 0,-87.5 c -1,21.470001 0.29001,40.73 0,87.5 m 0,0 c -38.46001,-0.99 -71.28,0.1 -100,0 m 100,0 c -23.35999,0.84 -45.24001,-0.56 -100,0 m 0,0 c 0.07,-24.970001 -1.11,-53.32 0,-87.5 m 0,87.5 c 1.67,-20.699997 0.33,-40.830002 0,-87.5" /></g></g></g><g
       id="g226"><g
         clip-path="url(#clipPath232)"
         id="g228"><g
           transform="matrix(0.0608647,0,0,-0.06120183,604.52057,223.28085)"
           id="g234"><path
             id="path236"
             style="fill:#000000;fill-opacity:1;fill-rule:nonzero;stroke:none"
             d="m 55,507 c 0,55.33331 19,102 57,140 38,38 81.66666,57 131,57 h 14 c 56.66666,0 106,-21 148,-63 l 21,31 c 3.33334,4.66669 6.66666,9.66669 10,15 3.33334,5.33331 6.66666,9.66669 10,13 l 3,4 c 0.66666,0 2,0 4,0 2,0 4,0.33331 6,1 h 4 c 2,0 5,-2 9,-6 V 462 l -6,-6 h -18 c -7.33334,0 -11.66666,1 -13,3 -1.33334,2 -3,8.66666 -5,20 -11.33334,84 -45,139.66669 -101,167 -24.66666,10.66669 -49.66666,16 -75,16 -35.33334,0 -64,-12 -86,-36 -22,-24 -33,-52 -33,-84 0,-22.66669 5.66667,-43.33334 17,-62 11.33333,-18.66666 27.33333,-33.66666 48,-45 6.66667,-2.66666 35.33333,-10.33334 86,-23 50.66666,-12.66666 78.66666,-20.33334 84,-23 38,-14.66666 69,-39.66666 93,-75 24,-35.33334 36.33334,-76.33333 37,-123 C 500,137 482.66666,88.333336 448,45 413.33334,1.6666641 364.33334,-20.333334 301,-21 263.66666,-21 230.33333,-15.333334 201,-4 171.66667,7.333334 151.33333,17.666666 140,27 L 122,41 C 119.33334,37.666668 114.33334,31 107,21 99.666664,11 93,1.666667 87,-7 c -6,-8.666667 -9,-13.333334 -9,-14 -1.333336,-0.666666 -4.666664,-1 -10,-1 h -4 c -2,0 -5,2 -9,6 v 117 c 0,79.33334 0.333332,119.66667 1,121 1.333332,3.33333 8,5 20,5 h 13 c 4,-4 6,-8.33333 6,-13 0,-21.33333 3.333336,-42.33333 10,-63 6.66666,-20.66667 18,-41 34,-61 16,-20 38,-36 66,-48 28,-12 61.33334,-18 100,-18 31.33334,0 58.33334,12.666664 81,38 22.66666,25.333336 34,56.33333 34,93 0,28.66667 -7.33334,54.66667 -22,78 -14.66666,23.33334 -34,39.33334 -58,48 -37.33334,9.33334 -62,15.66666 -74,19 -3.33334,0.66666 -12.33333,2.66666 -27,6 -14.66667,3.33334 -25.66667,6 -33,8 -7.33333,2 -18,5.66666 -32,11 -14,5.33334 -25,11.33334 -33,18 -8,6.66666 -17.66666,14.66666 -29,24 -11.33334,9.33334 -20.333336,21 -27,35 -20,32.66666 -30,67.66666 -30,105 z" /><path
             id="path238"
             style="fill:none;stroke:#000000;stroke-width:1;stroke-linecap:butt;stroke-linejoin:miter;stroke-miterlimit:10;stroke-dasharray:none;stroke-opacity:0.01569998"
             d="m 55,507 c 0,55.33331 19,102 57,140 38,38 81.66666,57 131,57 h 14 c 56.66666,0 106,-21 148,-63 l 21,31 c 3.33334,4.66669 6.66666,9.66669 10,15 3.33334,5.33331 6.66666,9.66669 10,13 l 3,4 c 0.66666,0 2,0 4,0 2,0 4,0.33331 6,1 h 4 c 2,0 5,-2 9,-6 V 462 l -6,-6 h -18 c -7.33334,0 -11.66666,1 -13,3 -1.33334,2 -3,8.66666 -5,20 -11.33334,84 -45,139.66669 -101,167 -24.66666,10.66669 -49.66666,16 -75,16 -35.33334,0 -64,-12 -86,-36 -22,-24 -33,-52 -33,-84 0,-22.66669 5.66667,-43.33334 17,-62 11.33333,-18.66666 27.33333,-33.66666 48,-45 6.66667,-2.66666 35.33333,-10.33334 86,-23 50.66666,-12.66666 78.66666,-20.33334 84,-23 38,-14.66666 69,-39.66666 93,-75 24,-35.33334 36.33334,-76.33333 37,-123 C 500,137 482.66666,88.333336 448,45 413.33334,1.6666641 364.33334,-20.333334 301,-21 263.66666,-21 230.33333,-15.333334 201,-4 171.66667,7.333334 151.33333,17.666666 140,27 L 122,41 C 119.33334,37.666668 114.33334,31 107,21 99.666664,11 93,1.666667 87,-7 c -6,-8.666667 -9,-13.333334 -9,-14 -1.333336,-0.666666 -4.666664,-1 -10,-1 h -4 c -2,0 -5,2 -9,6 v 117 c 0,79.33334 0.333332,119.66667 1,121 1.333332,3.33333 8,5 20,5 h 13 c 4,-4 6,-8.33333 6,-13 0,-21.33333 3.333336,-42.33333 10,-63 6.66666,-20.66667 18,-41 34,-61 16,-20 38,-36 66,-48 28,-12 61.33334,-18 100,-18 31.33334,0 58.33334,12.666664 81,38 22.66666,25.333336 34,56.33333 34,93 0,28.66667 -7.33334,54.66667 -22,78 -14.66666,23.33334 -34,39.33334 -58,48 -37.33334,9.33334 -62,15.66666 -74,19 -3.33334,0.66666 -12.33333,2.66666 -27,6 -14.66667,3.33334 -25.66667,6 -33,8 -7.33333,2 -18,5.66666 -32,11 -14,5.33334 -25,11.33334 -33,18 -8,6.66666 -17.66666,14.66666 -29,24 -11.33334,9.33334 -20.333336,21 -27,35 -20,32.66666 -30,67.66666 -30,105 z" /></g><g
           transform="matrix(0.0608647,0,0,-0.06120183,638.36133,223.28085)"
           id="g240"><path
             id="path242"
             style="fill:#000000;fill-opacity:1;fill-rule:nonzero;stroke:none"
             d="m 130,622 c -4.66666,4.66669 -8.33334,7.66669 -11,9 -2.66666,1.33331 -8,2.33331 -16,3 -8,0.66669 -22.333328,1.66669 -43,3 H 27 v 46 h 187 c 15.33333,0 36,0 62,0 26,0 44.33334,0.33331 55,1 58.66666,0 105.33334,-4.33331 140,-13 34.66666,-8.66669 66.66669,-27 96,-55 38,-35.33331 57,-77.66669 57,-127 0,-45.33334 -17,-84.33334 -51,-117 -34,-32.66666 -74.66666,-54.33334 -122,-65 -14.66666,-3.33334 -55.66666,-5.33334 -123,-6 H 234 V 181 c 0,-79.33334 1,-120.333332 3,-123 5.33333,-7.333332 27.66666,-11.333332 67,-12 h 33 V 0 H 326 C 312,2 264,3 182,3 92,3 44,2 38,0 H 27 v 46 h 33 c 28,0.666668 45,1.666668 51,3 6,1.333332 12.33334,5.333332 19,12 z M 507,488 c 0,17.33334 -0.33334,30.66669 -1,40 -0.66666,9.33331 -2.66666,21.33331 -6,36 -3.33334,14.66669 -9,25.66669 -17,33 -8,7.33331 -19,15 -33,23 -14,8 -31.66666,13 -53,15 -8,1.33331 -38,2 -90,2 h -21 c -32.66667,0 -50,-3 -52,-9 -2,-2.66669 -3,-51 -3,-145 V 342 h 71 37 c 34,0 62,2.33334 84,7 22,4.66666 41.33334,15.66666 58,33 17.33334,19.33334 26,54.66666 26,106 z" /><path
             id="path244"
             style="fill:none;stroke:#000000;stroke-width:1;stroke-linecap:butt;stroke-linejoin:miter;stroke-miterlimit:10;stroke-dasharray:none;stroke-opacity:0.01569998"
             d="m 130,622 c -4.66666,4.66669 -8.33334,7.66669 -11,9 -2.66666,1.33331 -8,2.33331 -16,3 -8,0.66669 -22.333328,1.66669 -43,3 H 27 v 46 h 187 c 15.33333,0 36,0 62,0 26,0 44.33334,0.33331 55,1 58.66666,0 105.33334,-4.33331 140,-13 34.66666,-8.66669 66.66669,-27 96,-55 38,-35.33331 57,-77.66669 57,-127 0,-45.33334 -17,-84.33334 -51,-117 -34,-32.66666 -74.66666,-54.33334 -122,-65 -14.66666,-3.33334 -55.66666,-5.33334 -123,-6 H 234 V 181 c 0,-79.33334 1,-120.333332 3,-123 5.33333,-7.333332 27.66666,-11.333332 67,-12 h 33 V 0 H 326 C 312,2 264,3 182,3 92,3 44,2 38,0 H 27 v 46 h 33 c 28,0.666668 45,1.666668 51,3 6,1.333332 12.33334,5.333332 19,12 z M 507,488 c 0,17.33334 -0.33334,30.66669 -1,40 -0.66666,9.33331 -2.66666,21.33331 -6,36 -3.33334,14.66669 -9,25.66669 -17,33 -8,7.33331 -19,15 -33,23 -14,8 -31.66666,13 -53,15 -8,1.33331 -38,2 -90,2 h -21 c -32.66667,0 -50,-3 -52,-9 -2,-2.66669 -3,-51 -3,-145 V 342 h 71 37 c 34,0 62,2.33334 84,7 22,4.66666 41.33334,15.66666 58,33 17.33334,19.33334 26,54.66666 26,106 z" /></g><g
           transform="matrix(0.0608647,0,0,-0.06120183,679.87103,223.28085)"
           id="g246"><path
             id="path248"
             style="fill:#000000;fill-opacity:1;fill-rule:nonzero;stroke:none"
             d="m 114,620 c -0.66666,0.66669 -2,2 -4,4 -2,2 -3,3 -3,3 0,0 -1.33334,1 -4,3 -2.66666,2 -4.333336,2.66669 -5,2 -0.666664,-0.66669 -3,0 -7,2 -4,2 -7.666664,2.33331 -11,1 -3.333336,-1.33331 -7.666664,-1 -13,1 -5.333332,2 -11.666668,2.33331 -19,1 H 19 v 46 h 9 c 12,-2 53.333328,-3 124,-3 80.66667,0 128,1 142,3 h 11 v -46 h -21 c -40.66667,-2 -61,-7.66669 -61,-17 0,-1.33331 30,-84 90,-248 60,-164 90.33334,-246 91,-246 l 86,232 c 56.66669,153.33334 85,233 85,239 0,12.66669 -7,22.33331 -21,29 -14,6.66669 -29.33331,10.33331 -46,11 h -5 v 46 h 9 c 10,-2 48.33331,-3 115,-3 60.66669,0 93,1 97,3 h 6 v -46 h -7 C 673,637 641,623.33331 627,596 627,595.33331 589.66669,493.66669 515,291 440.33331,88.333328 402.33334,-13.333333 401,-14 c -3.33334,-5.333334 -9.66666,-8 -19,-8 h -8 -7 c -9.33334,0 -15.66666,2.666666 -19,8 -1.33334,1.333333 -40.33331,107 -117,317 -78,209.33337 -117,315 -117,317 z" /><path
             id="path250"
             style="fill:none;stroke:#000000;stroke-width:1;stroke-linecap:butt;stroke-linejoin:miter;stroke-miterlimit:10;stroke-dasharray:none;stroke-opacity:0.01569998"
             d="m 114,620 c -0.66666,0.66669 -2,2 -4,4 -2,2 -3,3 -3,3 0,0 -1.33334,1 -4,3 -2.66666,2 -4.333336,2.66669 -5,2 -0.666664,-0.66669 -3,0 -7,2 -4,2 -7.666664,2.33331 -11,1 -3.333336,-1.33331 -7.666664,-1 -13,1 -5.333332,2 -11.666668,2.33331 -19,1 H 19 v 46 h 9 c 12,-2 53.333328,-3 124,-3 80.66667,0 128,1 142,3 h 11 v -46 h -21 c -40.66667,-2 -61,-7.66669 -61,-17 0,-1.33331 30,-84 90,-248 60,-164 90.33334,-246 91,-246 l 86,232 c 56.66669,153.33334 85,233 85,239 0,12.66669 -7,22.33331 -21,29 -14,6.66669 -29.33331,10.33331 -46,11 h -5 v 46 h 9 c 10,-2 48.33331,-3 115,-3 60.66669,0 93,1 97,3 h 6 v -46 h -7 C 673,637 641,623.33331 627,596 627,595.33331 589.66669,493.66669 515,291 440.33331,88.333328 402.33334,-13.333333 401,-14 c -3.33334,-5.333334 -9.66666,-8 -19,-8 h -8 -7 c -9.33334,0 -15.66666,2.666666 -19,8 -1.33334,1.333333 -40.33331,107 -117,317 -78,209.33337 -117,315 -117,317 z" /></g><g
           transform="matrix(0.04303134,0,0,-0.04326969,725.51959,232.46114)"
           id="g252"><path
             id="path254"
             style="fill:#000000;fill-opacity:1;fill-rule:nonzero;stroke:none"
             d="m 132,622 c -4.66666,4.66669 -8.33334,7.66669 -11,9 -2.66666,1.33331 -8,2.33331 -16,3 -8,0.66669 -22.333328,1.66669 -43,3 H 29 v 46 h 106 c 57.33334,0 89.66667,-0.33331 97,-1 7.33333,-0.66669 13,-3 17,-7 0.66667,-0.66669 35.66666,-93 105,-277 L 458,124 562,398 c 69.33331,184 104.66669,276.33331 106,277 2,4 7,6.33331 15,7 8,0.66669 40.66669,1 98,1 h 106 v -46 h -33 c -26.66669,-0.66669 -43.66669,-1.66669 -51,-3 -7.33331,-1.33331 -13.33331,-5.33331 -18,-12 V 61 c 4,-6.666668 9.66669,-10.666668 17,-12 7.33331,-1.333332 24.66669,-2.333332 52,-3 h 33 V 0 H 876 C 862,2 815.33331,3 736,3 648.66669,3 602,2 596,0 h -11 v 46 h 33 c 28,0.666668 45,1.666668 51,3 6,1.333332 12.33331,5.333332 19,12 v 286 c 0,51.33334 0,89.33334 0,114 0,24.66666 0,53 0,85 0,32 0,54.33331 0,67 l -1,19 C 531.66663,220 452.66666,11.666667 450,7 447.33334,3 440.66666,1 430,1 419.33334,1 412.66666,3 410,7 409.33334,8.333333 370,111.33333 292,316 L 176,624 v -18 c -0.66667,-12 -1,-33 -1,-63 0,-30 0,-56.66666 0,-80 0,-23.33334 0,-59 0,-107 l 1,-270 c 7.33333,-24 35.66666,-37.333332 85,-40 h 17 V 0 h -9 C 259,2 220.66667,3 154,3 86,3 47,2 37,0 h -8 v 46 h 17 c 21.333336,1.333332 38.666664,4.666668 52,10 13.33334,5.333332 21.33334,9.666664 24,13 2.66666,3.333336 6,9 10,17 z" /><path
             id="path256"
             style="fill:none;stroke:#000000;stroke-width:1;stroke-linecap:butt;stroke-linejoin:miter;stroke-miterlimit:10;stroke-dasharray:none;stroke-opacity:0.01180001"
             d="m 132,622 c -4.66666,4.66669 -8.33334,7.66669 -11,9 -2.66666,1.33331 -8,2.33331 -16,3 -8,0.66669 -22.333328,1.66669 -43,3 H 29 v 46 h 106 c 57.33334,0 89.66667,-0.33331 97,-1 7.33333,-0.66669 13,-3 17,-7 0.66667,-0.66669 35.66666,-93 105,-277 L 458,124 562,398 c 69.33331,184 104.66669,276.33331 106,277 2,4 7,6.33331 15,7 8,0.66669 40.66669,1 98,1 h 106 v -46 h -33 c -26.66669,-0.66669 -43.66669,-1.66669 -51,-3 -7.33331,-1.33331 -13.33331,-5.33331 -18,-12 V 61 c 4,-6.666668 9.66669,-10.666668 17,-12 7.33331,-1.333332 24.66669,-2.333332 52,-3 h 33 V 0 H 876 C 862,2 815.33331,3 736,3 648.66669,3 602,2 596,0 h -11 v 46 h 33 c 28,0.666668 45,1.666668 51,3 6,1.333332 12.33331,5.333332 19,12 v 286 c 0,51.33334 0,89.33334 0,114 0,24.66666 0,53 0,85 0,32 0,54.33331 0,67 l -1,19 C 531.66663,220 452.66666,11.666667 450,7 447.33334,3 440.66666,1 430,1 419.33334,1 412.66666,3 410,7 409.33334,8.333333 370,111.33333 292,316 L 176,624 v -18 c -0.66667,-12 -1,-33 -1,-63 0,-30 0,-56.66666 0,-80 0,-23.33334 0,-59 0,-107 l 1,-270 c 7.33333,-24 35.66666,-37.333332 85,-40 h 17 V 0 h -9 C 259,2 220.66667,3 154,3 86,3 47,2 37,0 h -8 v 46 h 17 c 21.333336,1.333332 38.666664,4.666668 52,10 13.33334,5.333332 21.33334,9.666664 24,13 2.66666,3.333336 6,9 10,17 z" /></g><g
           transform="matrix(0.04303134,0,0,-0.04326969,764.9599,232.46114)"
           id="g258"><path
             id="path260"
             style="fill:#000000;fill-opacity:1;fill-rule:nonzero;stroke:none"
             d="m 130,622 c -4.66666,4.66669 -8.33334,7.66669 -11,9 -2.66666,1.33331 -8,2.33331 -16,3 -8,0.66669 -22.333328,1.66669 -43,3 H 27 v 46 h 201 c 114,-0.66669 177.66666,-1 191,-1 13.33334,0 27.33334,-2 42,-6 28.66666,-6 57,-17.66669 85,-35 28,-17.33331 54.66669,-40 80,-68 25.33331,-28 45,-62.33334 59,-103 14,-40.66666 21.66669,-85.33334 23,-134 C 708,252 683.33331,178.66667 634,116 584.66669,53.333332 520.66669,15.666667 442,3 433.33334,1.6666666 362,0.66666669 228,0 H 27 v 46 h 33 c 28,0.666668 45,1.666668 51,3 6,1.333332 12.33334,5.333332 19,12 z M 593,338 c 0,67.33334 -7.33331,121.66666 -22,163 -14.66669,41.33331 -40.66669,75 -78,101 -36,23.33331 -82,35 -138,35 h -33 -28 c -37.33334,0 -57.33333,-3 -60,-9 -2,-2.66669 -3,-97.33331 -3,-284 0,-188 0.33333,-283 1,-285 0.66667,-6.666668 6,-10.333332 16,-11 10,-0.666668 40.33334,-1.333332 91,-2 h 11 c 70.66669,0 125.66666,16.333332 165,49 30.66669,25.33334 51.33331,57.33333 62,96 10.66669,38.66667 16,87.66666 16,147 z" /><path
             id="path262"
             style="fill:none;stroke:#000000;stroke-width:1;stroke-linecap:butt;stroke-linejoin:miter;stroke-miterlimit:10;stroke-dasharray:none;stroke-opacity:0.01180001"
             d="m 130,622 c -4.66666,4.66669 -8.33334,7.66669 -11,9 -2.66666,1.33331 -8,2.33331 -16,3 -8,0.66669 -22.333328,1.66669 -43,3 H 27 v 46 h 201 c 114,-0.66669 177.66666,-1 191,-1 13.33334,0 27.33334,-2 42,-6 28.66666,-6 57,-17.66669 85,-35 28,-17.33331 54.66669,-40 80,-68 25.33331,-28 45,-62.33334 59,-103 14,-40.66666 21.66669,-85.33334 23,-134 C 708,252 683.33331,178.66667 634,116 584.66669,53.333332 520.66669,15.666667 442,3 433.33334,1.6666666 362,0.66666669 228,0 H 27 v 46 h 33 c 28,0.666668 45,1.666668 51,3 6,1.333332 12.33334,5.333332 19,12 z M 593,338 c 0,67.33334 -7.33331,121.66666 -22,163 -14.66669,41.33331 -40.66669,75 -78,101 -36,23.33331 -82,35 -138,35 h -33 -28 c -37.33334,0 -57.33333,-3 -60,-9 -2,-2.66669 -3,-97.33331 -3,-284 0,-188 0.33333,-283 1,-285 0.66667,-6.666668 6,-10.333332 16,-11 10,-0.666668 40.33334,-1.333332 91,-2 h 11 c 70.66669,0 125.66666,16.333332 165,49 30.66669,25.33334 51.33331,57.33333 62,96 10.66669,38.66667 16,87.66666 16,147 z" /></g></g></g><g
       id="g264"><g
         clip-path="url(#clipPath270)"
         id="g266"><g
           transform="matrix(2.9779058,0,0,2.9779058,1.4889529,1.4889529)"
           id="g272"><path
             id="path274"
             style="fill:none;stroke:#000000;stroke-width:1;stroke-linecap:butt;stroke-linejoin:miter;stroke-miterlimit:10;stroke-dasharray:none;stroke-opacity:1"
             d="m 101,59.25 h 78.63" /><path
             id="path276"
             style="fill:#000000;fill-opacity:1;fill-rule:nonzero;stroke:none"
             d="m 184.88,59.25 -7,3.5 1.75,-3.5 -1.75,-3.5 z" /><path
             id="path278"
             style="fill:none;stroke:#000000;stroke-width:1;stroke-linecap:butt;stroke-linejoin:miter;stroke-miterlimit:10;stroke-dasharray:none;stroke-opacity:1"
             d="m 184.88,59.25 -7,3.5 1.75,-3.5 -1.75,-3.5 z" /><path
             id="path280"
             style="fill:none;stroke:#000000;stroke-width:1;stroke-linecap:butt;stroke-linejoin:miter;stroke-miterlimit:10;stroke-dasharray:none;stroke-opacity:1"
             d="m 103,159 h 42.5 l 35.63,-0.59" /><path
             id="path282"
             style="fill:#000000;fill-opacity:1;fill-rule:nonzero;stroke:none"
             d="m 186.38,158.32001 -6.94,3.60998 1.69,-3.51999 -1.80999,-3.47 z" /><path
             id="path284"
             style="fill:none;stroke:#000000;stroke-width:1;stroke-linecap:butt;stroke-linejoin:miter;stroke-miterlimit:10;stroke-dasharray:none;stroke-opacity:1"
             d="m 186.38,158.32001 -6.94,3.60998 1.69,-3.51999 -1.80999,-3.47 z" /><path
             id="path286"
             style="fill:none;stroke:#000000;stroke-width:1;stroke-linecap:butt;stroke-linejoin:miter;stroke-miterlimit:10;stroke-dasharray:none;stroke-opacity:1"
             d="m 101,263 h 78.63" /><path
             id="path288"
             style="fill:#000000;fill-opacity:1;fill-rule:nonzero;stroke:none"
             d="m 184.88,263 -7,3.5 1.75,-3.5 -1.75,-3.5 z" /><path
             id="path290"
             style="fill:none;stroke:#000000;stroke-width:1;stroke-linecap:butt;stroke-linejoin:miter;stroke-miterlimit:10;stroke-dasharray:none;stroke-opacity:1"
             d="m 184.88,263 -7,3.5 1.75,-3.5 -1.75,-3.5 z" /></g></g></g></g></svg>